<svg xmlns="http://www.w3.org/2000/svg" viewBox="0 0 600 600"><path d="M382.07 393.05V207a29.89 29.89 0 0 0-14.94-25.87L300 142.33l-67.13 38.75A29.89 29.89 0 0 0 217.93 207v186.1a29.89 29.89 0 0 0 14.94 25.87l67.13 38.7 67.13-38.75a29.89 29.89 0 0 0 14.94-25.87Z" fill="#26296a"/><path fill="#00b9d6" d="M382.07 346.76v46.29a29.89 29.89 0 0 1-14.94 25.87L300 457.67 394 512a29.85 29.85 0 0 0 29.87 0l161.16-93A29.87 29.87 0 0 0 600 393.05V278.53q-6.94 2.85-13.73 5.56c-95.04 38.02-159.94 55.79-204.2 62.67ZM600 211.42V207a29.87 29.87 0 0 0-14.94-25.87L423.9 88a29.85 29.85 0 0 0-29.9 0l-94 54.29 67.13 38.75A29.89 29.89 0 0 1 382.07 207v82.13c21.69-4.35 50.92-12.2 90-25.89 40.22-14.12 84.16-31.97 127.93-51.82Z"/><path d="M217.93 253.24V207a29.89 29.89 0 0 1 14.94-25.87l67.13-38.8L206 88a29.85 29.85 0 0 0-29.87 0L14.97 181A29.87 29.87 0 0 0 0 207v114.47q6.95-2.84 13.73-5.56c95.05-38.02 159.94-55.79 204.2-62.67Z" fill="#c9b6d9"/><path d="M0 388.57v4.48a29.87 29.87 0 0 0 14.94 25.87L176.1 512a29.85 29.85 0 0 0 29.9 0l94-54.29-67.13-38.75a29.89 29.89 0 0 1-14.94-25.87v-82.16c-21.69 4.34-50.92 12.2-90 25.88C87.71 350.88 43.77 368.73 0 388.57Z" fill="#c8b5d8"/><path d="M472.11 263.19c-39.12 13.69-68.35 21.54-90 25.89-38.26 7.66-53.07 4.4-57.22 2.94-1.47-14.94-10-27.61-24.1-34.94-11.77-6.1-35.5-11.19-82.82-3.84-44.26 6.88-109.15 24.65-204.2 62.67Q7 318.63 0 321.47v67.1c43.77-19.84 87.71-37.69 127.89-51.76 39.12-13.68 68.35-21.54 90-25.88 38.26-7.66 53.07-4.41 57.22-2.95 1.47 14.94 10 27.62 24.1 34.95 10.55 5.46 30.71 10.12 68.88 5.73q6.6-.77 13.94-1.9c44.26-6.88 109.16-24.65 204.2-62.67q6.78-2.71 13.73-5.56v-67.11c-43.73 19.85-87.67 37.7-127.85 51.77Z" fill="#fff"/></svg>
