<svg viewBox="0 0 32 32" xmlns="http://www.w3.org/2000/svg"><style>.i{fill:none;stroke:#000;stroke-width:2;stroke-linecap:round;stroke-linejoin:round;stroke-miterlimit:10}@media (prefers-color-scheme:dark){.i{stroke:#fff}}</style><path class="i" d="M19 19h5v5M6 23h5v-5"/><path class="i" d="M24 19.4c-.7.8-1.4 1.6-2.2 2.4-7 7-15.3 10.2-18.5 7s-.1-11.5 7-18.5S25.6.1 28.8 3.3c1.4 1.4 1.6 3.6.8 6.3"/><path class="i" d="M11 22.5c-.3-.2-.5-.5-.8-.8-7-7-10.2-15.3-7-18.5s11.5-.1 18.5 7 10.2 15.3 7 18.5c-1.7 1.7-4.8 1.6-8.4.1"/></svg>
