<svg xmlns="http://www.w3.org/2000/svg" fill="none" viewBox="0 0 112 55">
  <g>
    <path fill="currentColor" d="M45.578 29.18c-2.315 1.42-3.364 1.172-5.142-1.194-.075.186-.19.331-.19.48.03 2.837.034 5.673.15 8.504.03.76.246 1.607.643 2.237.853 1.338.863 2.774.848 4.262-.03 2.8.01 5.594-.035 8.394-.005.382-.341.76-.527 1.142-.186-.377-.532-.75-.537-1.126-.046-3.193-.015-6.38-.036-9.573 0-.465 0-1.002-.206-1.39-1.531-2.897-1.621-6.023-1.516-9.19.11-3.316.276-6.632.382-9.954.125-3.874 1.295-4.84 4.91-3.998 1.597-3.069 3.094-3.493 5.84-1.653 2.4-1.535 3.32-1.493 5.132.077 1.15-.253 2.165-.718 3.144-.646 1.692.13 2.867 1.52 2.566 3.26-.382 2.185.301 3.657 1.607 5.347 1.365 1.771 2.174 4.024 3.083 6.132.587 1.363.296 2.784-.533 3.988-1.35 1.957-2.822 3.827-4.142 5.806-.422.63-.713 1.483-.733 2.242-.08 3.146-.01 6.292-.06 9.438-.006.408-.372.811-.568 1.22-.17-.393-.487-.781-.492-1.174-.045-3.45-.055-6.906-.005-10.357.01-.553.276-1.178.602-1.638 1.321-1.875 2.712-3.698 4.078-5.538 1.074-1.446 1.366-2.96.462-4.628-.93-1.71-1.672-3.549-2.757-5.145-1.758-2.578-3.756-2.95-6.553-1.68-.773.352-1.712.31-2.546.554-.472.14-1.16.402-1.26.754-.11.382.246 1.234.582 1.358 1 .378 2.11.75 3.144.672 2.455-.186 2.43-.284 3.083 2.061.145.527.432 1.018.728 1.71-.346.17-.723.377-1.12.543-1.29.542-2.651.95-3.861 1.637-1.763 1.002-2.426 2.82-2.888 4.737-.11.444-.527.811-.803 1.214-.07-.501-.281-1.033-.18-1.498.717-3.394 1.32-4.127 5.166-6.855-.366-.057-.853-.294-1.074-.14-1.376.972-2.631.76-3.907-.315-1.481 1.178-2.983 1.39-4.474-.088l-.005.01Zm3.856-6.339h.216c0-1.524.04-3.047-.015-4.571-.045-1.194-.984-2.118-2.023-2.129-1.08-.01-2.1 1.008-2.044 2.237.14 2.955.367 5.91.577 8.865.08 1.09.583 1.87 1.748 1.792 1.165-.077 1.531-.93 1.536-2.01v-4.184h.005Zm-4.428 4.004c-.151-2.04-.277-4.081-.452-6.116-.116-1.38-1.075-2.294-2.215-2.186-1.25.12-1.993 1.168-1.762 2.65.316 2.062.703 4.112 1.09 6.158.195 1.023.828 1.695 1.857 1.565 1.09-.14 1.527-.981 1.477-2.071h.005Zm5.603-4.525c1.03 0 1.758.108 2.436-.037.507-.108 1.27-.454 1.36-.836.272-1.127.387-2.33.332-3.493-.05-1.08-.844-1.735-1.873-1.797-.974-.057-1.828.496-1.973 1.498-.221 1.529-.196 3.094-.282 4.665Zm9.114-1.245c.07-.75.211-1.591.221-2.439.015-1.12-.648-1.802-1.652-1.999-1.044-.201-1.873.346-2.174 1.359-.291.966-.337 2.01-.497 3.073h4.102v.006Zm-8.943 5.419c-.321 1.374.05 2.314 1.035 2.51 1.049.212 1.637-.33 1.958-1.4-1.055-.392-2.024-.749-2.993-1.11Zm4.143 1.08c.356 1.032.833 1.647 1.933 1.342-.15-1.797-.256-1.88-1.933-1.343Z"/>
  </g>
  <g>
    <path fill="currentColor" d="M96.093 29.788c-1.347-8.717-2.67-17.314-4.003-25.912-.06-.387-.139-.77-.214-1.156-.199-1.048-.795-1.698-1.835-1.538-1.029.155-1.466.94-1.352 2.013.288 2.688.582 5.372.88 8.06.13 1.172.219 2.349.423 3.505.164.923.522 1.806.73 2.72.165.706.339 1.444.319 2.162-.06 2.224-.234 4.443-.323 6.667-.135 3.365-1.88 4.454-4.739 2.916-1.954 1.321-2.471 1.352-4.47.232-2.442 1.6-3.496 1.347-5.3-1.496 0 2.312-.056 4.36.014 6.41.075 2.198.458 4.329 1.601 6.254.184.304.2.753.2 1.135.014 3.319.01 6.642.01 9.96 0 .13.039.284-.016.387-.159.305-.358.594-.537.888-.179-.289-.497-.573-.507-.867-.055-1.44-.025-2.88-.025-4.325 0-.96-.015-1.92 0-2.884.04-1.961-.025-3.835-.92-5.703-.611-1.275-.766-2.864-.815-4.325-.135-3.622-.09-7.25-.12-10.873 0-.346.01-.697-.04-1.037-.387-2.823 1.234-4.439 3.949-3.923.204.037.403.088.591.13 1.746-3.324 3.004-3.783 5.455-2.225 1.323-.506 2.501-.96 3.894-1.491-.234-2.116-.488-4.48-.756-6.843-.194-1.734-.438-3.463-.602-5.197-.179-1.884.776-3.215 2.367-3.416 1.571-.196 2.75.903 3.043 2.776.955 6.11 1.924 12.22 2.894 18.33.373 2.36.741 4.718 1.149 7.07.189 1.105.74 1.461 1.884 1.11 1.557-.474 2.909-1.197 4.242-2.183 1.685-1.243 3.56-2.275 5.46-3.142 1.476-.676 2.6-.155 3.132 1.006.567 1.238.11 2.265-1.263 3.267-.85.619-1.79 1.285-2.317 2.172-2.322 3.917-5.599 6.75-9.383 8.933-2.069 1.193-2.82 2.7-2.606 5.12.22 2.425.075 4.887.02 7.333-.01.397-.392.79-.601 1.182-.154-.398-.443-.79-.448-1.192-.045-3.406-.015-6.812-.06-10.218-.01-.749.234-1.187.836-1.58 1.178-.758 2.277-1.65 3.466-2.394 3.073-1.925 5.619-4.371 7.617-7.504.736-1.156 2.024-1.925 2.984-2.952.378-.407.537-1.037.796-1.568-.567-.207-1.273-.749-1.686-.568-1.646.722-3.441 1.393-4.739 2.596-2.461 2.28-5.385 2.895-8.433 3.375-1.04.165-2.079.335-3.098.583-2.814.692-4.61 2.374-4.948 5.506-.04.393-.502.733-.77 1.094-.095-.428-.329-.877-.269-1.28.602-4.143 3.014-6.306 7.553-6.853.617-.072 1.224-.19 1.671-.263l.015.016ZM85.268 26.16h-.045c-.06-1.394-.114-2.782-.184-4.175-.05-.996-.02-2.013-.194-2.988-.209-1.167-1.168-1.807-2.212-1.647-1.055.16-1.805 1.182-1.71 2.364.039.475.143.944.203 1.42.278 2.063.537 4.133.83 6.197.15 1.048.647 1.873 1.79 1.77 1.12-.098 1.522-.944 1.512-2.033v-.914l.01.006Zm4.749-6.534c.08-1.59-.806-2.74-2.054-2.694-1.203.047-2.029 1.172-1.954 2.7.124 2.471.268 4.943.398 7.42.054 1.012.512 1.688 1.516 1.719 1.08.036 1.581-.687 1.651-1.729.164-2.472.299-4.944.443-7.416Zm-9.04 8.231c-.383-2.373-.642-4.309-1.02-6.223-.218-1.11-1.322-1.791-2.277-1.58-1.024.233-1.83 1.234-1.581 2.313.452 1.981.974 3.963 1.685 5.852.19.51 1.234 1.042 1.776.939.596-.114 1.064-.95 1.417-1.3Z"/>
  </g>
  <g>
    <path fill="currentColor" d="M14.821 33.02c-1.08-.402-1.941-.72-2.975-1.101-1.316 1.096-2.83 1.228-4.272-.19-.534.259-1.013.571-1.533.73-1.553.476-3.05-.44-3.419-2.118-.237-1.074-.363-2.175-.665-3.245-1.08 4.765-1.584 9.497 1.018 13.939.636 1.085.873 2.16.853 3.409-.056 3.092 0 6.183-.046 9.275-.005.429-.348.857-.534 1.28-.182-.444-.52-.889-.525-1.338-.045-3.182.01-6.364-.05-9.545-.015-.715-.202-1.514-.545-2.128C.171 38.515-.287 34.772.151 30.844c.389-3.462.822-6.924 1.195-10.386.227-2.075 1.957-3.378 3.96-2.896.327.08.64.217.947.323 1.695-3.219 3.212-3.653 5.895-1.731 2.517-1.583 3.364-1.546 5.34.233 3.647-1.768 5.054-.969 5.724 3.176 1.16-.72 2.285-1.62 3.55-2.154 1.932-.816 3.596.64 3.167 2.673-.116.55-.514 1.149-.953 1.493-.988.778-1.412 1.779-1.366 3.012.06 1.652.035 3.33.312 4.95.358 2.059-.216 3.795-1.185 5.479-1.3 2.26-2.657 4.489-3.908 6.776a4.812 4.812 0 0 0-.555 2.133c-.055 3.314-.01 6.633-.05 9.947 0 .382-.353.752-.545 1.133-.176-.365-.499-.725-.504-1.09a489.74 489.74 0 0 1-.025-10.89c0-.497.257-1.032.499-1.482 1.145-2.096 2.194-4.272 3.535-6.225 1.619-2.361 2.002-4.823 1.457-7.602-.201-1.038-.176-2.14-.15-3.208.035-1.536.498-2.848 1.734-3.865.368-.302.373-1.101.544-1.673-.6-.148-1.29-.577-1.785-.402-2.178.778-3.5 2.551-4.15 4.78-.585 2.001-.983 4.071-1.366 6.13-.409 2.219-.838 2.77-2.925 3.304-.167.042-.323.122-.49.159-2.985.667-4.866 2.424-5.26 5.733-.045.37-.453.688-.695 1.032-.111-.402-.358-.826-.303-1.207.303-2.213.928-4.272 3.031-5.479h-.005Zm-3.44-8.989h.233v-5.225c0-1.599-.858-2.678-2.093-2.63-1.21.047-1.982 1.053-1.916 2.64.15 3.611.343 7.227.53 10.837.065 1.255.695 1.959 1.694 1.89 1.104-.074 1.548-.794 1.548-1.885v-5.622l.005-.005Zm1.362-.08h-.201v5.358c0 1.128.277 2.118 1.533 2.208 1.276.09 1.674-.874 1.77-1.986.317-3.6.63-7.2.892-10.799.111-1.52-.756-2.567-1.971-2.573-1.155 0-1.992.98-2.018 2.44-.025 1.785-.005 3.569-.005 5.358v-.005Zm4.166 5.956c.005.572.328 1.403 1.407 1.604 1.008.19 1.755-.503 1.966-1.789.56-3.43 1.11-6.86 1.66-10.291.232-1.44-.49-2.626-1.695-2.811-1.094-.17-2.173.778-2.315 2.16-.358 3.552-.66 7.11-1.028 11.122l.005.005Zm-9.93-1.037c-.171-2.79-.327-5.374-.489-7.957-.09-1.424-.983-2.361-2.153-2.287-1.19.074-1.967 1.064-1.836 2.541.152 1.731.414 3.446.636 5.172.146 1.149.262 2.303.469 3.441.186 1.032.801 1.758 1.845 1.647 1.014-.112 1.538-.858 1.528-1.96v-.597Z"/>
  </g>
</svg>
