<svg viewBox="0 0 20 20" xmlns="http://www.w3.org/2000/svg">
    <path d="M19.5484 7.02857C19.3566 6.40712 19.103 5.80648 18.7912 5.23572C18.3303 4.38858 17.7507 3.61168 17.0699 2.92857C15.6714 1.53015 13.8897 0.577846 11.95 0.192077C10.0103 -0.193692 7.99975 0.00440052 6.17264 0.761307C4.34552 1.51821 2.78387 2.79994 1.68515 4.44441C0.586436 6.08887 0 8.02223 0 10C0 11.9778 0.586436 13.9111 1.68515 15.5556C2.78387 17.2001 4.34552 18.4818 6.17264 19.2387C7.99975 19.9956 10.0103 20.1937 11.95 19.8079C13.8897 19.4222 15.6714 18.4698 17.0699 17.0714C17.7507 16.3883 18.3303 15.6114 18.7912 14.7643C19.103 14.1935 19.3566 13.5929 19.5484 12.9714C20.1506 11.0362 20.1506 8.96375 19.5484 7.02857ZM1.42778 10C1.42778 7.72672 2.3308 5.54654 3.93818 3.93909C5.54556 2.33163 7.72563 1.42858 9.99881 1.42858V18.5714C7.72563 18.5714 5.54556 17.6684 3.93818 16.0609C2.3308 14.4535 1.42778 12.2733 1.42778 10Z" fill="currentColor"/>
</svg>
