<svg xmlns="http://www.w3.org/2000/svg" fill="none" viewBox="0 0 50 25">
  <g fill="currentColor" clip-path="url(#a)">
    <path d="M15.095 13.042c-.378-.033-.757-.044-1.113-.109-.756-.151-1.394-.552-1.967-1.05-.389-.336-.41-.878-.075-1.3.4-.498.907-.607 1.361-.271.378.282.767.542 1.254.628a1.3 1.3 0 0 0 1.177-.336c.486-.444.713-1.029.703-1.679-.011-.844-.8-1.43-1.675-1.3-.886.13-1.405.618-1.621 1.506-.151.64-.66.964-1.22.78-.412-.14-.693-.552-.638-.986.064-.541.205-1.072.464-1.548.616-1.138 1.6-1.712 2.874-1.734 2.313-.032 4.636 0 6.959-.01.205 0 .346.065.454.238.324.509.486 1.072.583 1.668.151.888.184 1.787-.032 2.675a1.089 1.089 0 0 1-.281.499 7.052 7.052 0 0 0-1.772 2.946c-.616 2.026-1.546 3.889-2.907 5.524-.14.163-.28.325-.432.477-.4.39-.93.368-1.372-.043-.4-.369-.443-.91-.087-1.311.66-.748 1.254-1.538 1.74-2.426-.065.054-.119.108-.184.151-.907.77-1.87 1.463-2.993 1.863-.475.174-.95-.043-1.156-.498-.205-.433-.054-.931.367-1.192.14-.086.292-.162.433-.249a9.084 9.084 0 0 0 1.015-.714c-.065.032-.14.065-.205.086-.67.25-1.318.52-1.999.737-.594.195-1.07-.109-1.232-.726-.14-.552.152-1.018.735-1.17 1.167-.292 2.172-.693 2.852-1.148l-.01.022Z"/>
    <path d="M5.273 4.051c.227-.195.464-.39.691-.574.735-.574 1.513-1.072 2.388-1.408.53-.206 1.027-.022 1.253.455.217.466.044.964-.443 1.245-.475.282-.94.575-1.404.867 0 .022.021.033.032.054.065-.021.12-.054.184-.076.67-.249 1.34-.52 2.02-.747.595-.195 1.081.108 1.232.726.14.552-.162 1.04-.756 1.18a8.858 8.858 0 0 0-2.831 1.17h.216C9 6.89 9.93 7.387 10.762 8.113c.378.336.356.877 0 1.3-.39.455-.865.541-1.308.238-.26-.173-.53-.368-.81-.498-.8-.368-1.545-.14-1.967.628a2.972 2.972 0 0 0-.345 1.127c-.087.899.778 1.57 1.74 1.408.874-.141 1.35-.693 1.544-1.527.108-.488.454-.78.897-.78.551 0 .951.411.94.985-.032 1.495-1.102 2.85-2.55 3.207a3.95 3.95 0 0 1-.875.108c-2.258 0-4.527 0-6.786.01-.27 0-.432-.097-.561-.313-.346-.596-.497-1.246-.584-1.918C0 11.308 0 10.54.162 9.77c.043-.216.14-.39.302-.552.843-.812 1.427-1.798 1.773-2.925.626-2.047 1.555-3.92 2.938-5.567.13-.163.27-.314.422-.455.389-.38.93-.358 1.372.054.378.357.41.877.087 1.3-.552.726-1.092 1.451-1.643 2.188-.054.065-.086.14-.13.216l.022.022h-.032Zm32.312 11.114-.497-1.636h-2.485l-.497 1.636H32.55l2.41-6.879h1.771l2.42 6.879h-1.565Zm-.843-2.85-.497-1.591c-.032-.109-.075-.239-.119-.412a7.002 7.002 0 0 1-.151-.51 8.34 8.34 0 0 1-.13-.454c-.032.13-.075.282-.13.477-.053.184-.107.368-.161.541-.054.174-.087.293-.108.358l-.487 1.592h1.783Zm5.295-2.49c.702 0 1.242.151 1.61.455.378.303.562.769.562 1.397v3.488h-.995l-.27-.715h-.032a3.002 3.002 0 0 1-.454.455 1.475 1.475 0 0 1-.54.26 2.913 2.913 0 0 1-.735.086 1.88 1.88 0 0 1-.832-.173 1.318 1.318 0 0 1-.572-.542c-.14-.249-.206-.552-.206-.931 0-.553.195-.964.584-1.235.389-.26.972-.412 1.75-.433l.908-.033v-.227c0-.271-.076-.477-.216-.607s-.346-.195-.595-.195c-.248 0-.497.033-.745.109a5.809 5.809 0 0 0-.724.27l-.475-.964c.28-.151.583-.26.929-.346a4.36 4.36 0 0 1 1.07-.13l-.022.01Zm.756 2.913-.55.022c-.465.01-.779.098-.963.25a.747.747 0 0 0-.27.606c0 .216.065.379.195.466.13.097.291.14.497.14.302 0 .562-.086.778-.27.205-.185.313-.445.313-.77v-.443Zm1.08-4.928v.097a6.571 6.571 0 0 1-.356.325c-.151.13-.303.26-.475.401l-.497.4c-.163.13-.303.228-.422.315h-.95v-.13c.107-.12.226-.26.356-.422.13-.163.27-.336.4-.51.13-.173.248-.335.335-.476h1.609Z"/>
    <path d="M34.603 25a.814.814 0 0 1-.81-.812v-4.29a49.262 49.262 0 0 1-2.864-.346c-2.096-.314-3.62-2.113-3.62-4.3V8.73c0-2.189 1.524-3.987 3.62-4.3 2.54-.38 5.143-.564 7.726-.564 2.571 0 5.175.195 7.715.563 2.096.314 3.62 2.123 3.62 4.3v6.521c0 2.178-1.524 3.987-3.62 4.3a52.06 52.06 0 0 1-6.235.542.82.82 0 0 0-.573.25l-4.397 4.408a.809.809 0 0 1-.573.238l.01.011Zm4.063-19.497c-2.507 0-5.035.184-7.488.552-1.297.195-2.237 1.322-2.237 2.697v6.521c0 1.365.94 2.502 2.237 2.686a46.06 46.06 0 0 0 3.5.39c.422.033.746.39.746.813v3.065l3.026-3.033a2.458 2.458 0 0 1 1.674-.715 51.056 51.056 0 0 0 6.04-.53c1.297-.196 2.237-1.322 2.237-2.698v-6.52c0-1.365-.94-2.503-2.237-2.698a50.754 50.754 0 0 0-7.477-.552l-.021.022Z"/>
  </g>
  <defs>
    <clipPath id="a">
      <path fill="#fff" d="M0 0h50v25H0z"/>
    </clipPath>
  </defs>
</svg>
