<svg viewBox="0 0 45 24" fill="none" xmlns="http://www.w3.org/2000/svg">
    <path d="M11.6607 10.2901C10.849 9.90415 9.90666 9.88722 9.10197 10.2024C10.7832 10.1574 11.9338 10.9491 12.5333 12.1424C12.8909 12.8519 12.3711 13.6762 11.6423 13.6957C12.3695 13.6763 12.935 14.4701 12.6152 15.1992C12.0673 16.4531 10.8499 17.2896 9.50138 17.3257C9.47941 17.3263 5.76434 17.0798 5.76434 17.0798L3.17987 18.4887C2.81463 18.6871 2.39839 18.5249 2.22861 18.2016L0.378714 14.6786C0.205016 14.3372 0.314541 13.9212 0.627384 13.723L2.88329 12.334L4.42611 9.3118C4.61667 7.00687 5.67847 4.86833 7.41486 3.33696C7.85417 2.94561 8.52481 2.99461 8.89887 3.44234C9.28387 3.88977 9.23607 4.5609 8.79671 4.95229C8.31471 5.38941 7.88898 5.88092 7.5522 6.41467C8.39151 5.80044 9.36751 5.37241 10.4493 5.20943C11.0283 5.11577 11.5657 5.51441 11.6473 6.10396C11.7399 6.69318 11.3486 7.23956 10.7693 7.32206C10.1354 7.41719 9.54936 7.65619 9.04247 7.98238C10.0668 7.7254 11.3558 7.79431 12.53 8.33545C13.0634 8.58908 13.2997 9.21913 13.0509 9.76169C12.8129 10.2928 12.1829 10.5329 11.6607 10.2901ZM10.661 13.108C10.4064 12.6124 9.9156 12.313 9.36739 12.3277C9.18291 12.332 9.00114 12.3735 8.83253 12.4496C8.66392 12.5258 8.51181 12.6351 8.38494 12.7713C8.25807 12.9075 8.15895 13.0679 8.09328 13.2433C8.0276 13.4187 7.99668 13.6056 8.00228 13.7933C8.02534 14.6535 8.74325 15.2024 9.44394 15.1837C9.99215 15.169 10.4662 14.8437 10.6939 14.3352C10.8592 13.9511 11.215 13.7183 11.5984 13.6969C11.2144 13.696 10.8466 13.4826 10.661 13.108ZM25.4112 11.2166C25.585 11.5581 25.4754 11.9741 25.1626 12.1723L22.9067 13.5613L21.3639 16.5835C21.1733 18.8884 20.1115 21.0269 18.3751 22.5583C17.9536 22.9357 17.287 22.9147 16.8911 22.4529C16.5061 22.0055 16.5539 21.3344 16.9933 20.943C17.4753 20.5059 17.901 20.0144 18.2378 19.4806C17.3985 20.0948 16.4225 20.5229 15.3406 20.6859C14.9479 20.7971 14.2474 20.4884 14.1427 19.7913C14.0501 19.2021 14.4414 18.6557 15.0207 18.5732C15.6545 18.4781 16.2406 18.2391 16.7475 17.9129C15.7232 18.1699 14.4341 18.101 13.26 17.5598C12.7266 17.3062 12.4903 16.6762 12.7391 16.1336C12.9771 15.6025 13.6071 15.3623 14.1293 15.6051C14.941 15.9911 15.8834 16.008 16.688 15.6928C15.0068 15.7379 13.8562 14.9461 13.2568 13.7529C12.8991 13.0434 13.4189 12.219 14.1477 12.1995C13.4205 12.219 12.855 11.4252 13.1748 10.6961C13.6969 9.50107 14.8578 8.60656 16.3545 8.56777L20.0257 8.81548L22.6101 7.40649C22.9763 7.20769 23.3922 7.37131 23.5614 7.6936L25.4112 11.2166ZM16.346 10.7116C15.7978 10.7263 15.3237 11.0516 15.096 11.5601C14.9307 11.9442 14.575 12.1769 14.1915 12.1984C14.5756 12.1993 14.9433 12.4127 15.1289 12.7873C15.3835 13.2829 15.8743 13.5823 16.4226 13.5676C16.607 13.5632 16.7888 13.5218 16.9574 13.4456C17.126 13.3695 17.2781 13.2602 17.405 13.124C17.5319 12.9878 17.631 12.8273 17.6967 12.652C17.7623 12.4766 17.7933 12.2897 17.7877 12.102C17.7646 11.2417 17.0467 10.6928 16.346 10.7116Z" fill="currentColor"/>
    <path d="M30.9646 20.8421L36.4909 8.99998L42.0172 20.8421M32.5435 17.6842H40.4382M23.0698 4.65366C25.165 4.39294 27.2743 4.26252 29.3856 4.26314M29.3856 4.26314C30.5646 4.26314 31.7361 4.30314 32.8951 4.38314M29.3856 4.26314V1.89471M32.8951 4.38314C31.6761 9.95577 28.333 13.4737 24.8242 15.5789M32.8951 4.38314C33.8382 4.44735 34.774 4.53787 35.7014 4.65366M30.8709 13.5958C29.1445 11.8406 27.7763 9.76628 26.8425 7.4884" stroke="currentColor" stroke-width="1.5" stroke-linecap="round" stroke-linejoin="round"/>
</svg>
