<svg viewBox="0 0 193.51 60.64" xmlns="http://www.w3.org/2000/svg"><g fill="#2b2e38"><path d="m93.92 18.43a3.64 3.64 0 0 1 3.82-3.68 3.6 3.6 0 0 1 2.83 1.2l-.86.8a2.5 2.5 0 0 0 -1.91-.83 2.51 2.51 0 1 0 0 5 2.49 2.49 0 0 0 1.91-.85l.86.82a3.86 3.86 0 0 1 -6.65-2.48z"/><path d="m102.2 18.43a3.85 3.85 0 1 1 3.85 3.67 3.66 3.66 0 0 1 -3.85-3.67zm6.36 0a2.51 2.51 0 1 0 -2.51 2.51 2.43 2.43 0 0 0 2.51-2.51z"/><path d="m118.67 14.86v7.14h-1.09l-3.94-4.84v4.84h-1.32v-7.14h1.09l3.94 4.83v-4.83z"/><path d="m128 14.86v7.14h-1.09l-3.94-4.84v4.84h-1.31v-7.14h1.09l3.94 4.83v-4.83z"/><path d="m136.25 20.89v1.11h-5.36v-7.14h5.22v1.14h-3.89v1.86h3.45v1.09h-3.45v2z"/><path d="m138.21 18.43a3.64 3.64 0 0 1 3.79-3.68 3.6 3.6 0 0 1 2.83 1.2l-.86.8a2.5 2.5 0 0 0 -1.91-.83 2.51 2.51 0 1 0 0 5 2.49 2.49 0 0 0 1.91-.85l.86.82a3.86 3.86 0 0 1 -6.65-2.48z"/><path d="m148.52 16h-2.36v-1.14h6.06v1.14h-2.37v6h-1.33z"/><path d="m159.59 20.89v1.11h-5.35v-7.14h5.21v1.14h-3.89v1.86h3.44v1.09h-3.45v2z"/><path d="m162 18.89v-4h1.33v4c0 1.46.66 2.1 1.81 2.1s1.81-.64 1.81-2.1v-4h1.31v4a3.13 3.13 0 1 1 -6.26 0z"/><path d="m175.84 22-1.46-2.09h-1.89v2.09h-1.33v-7.14h2.94c1.88 0 3 1 3 2.54a2.28 2.28 0 0 1 -1.52 2.25l1.68 2.35zm-1.84-6h-1.55v2.85h1.55c1.16 0 1.76-.54 1.76-1.43s-.56-1.42-1.76-1.42z"/><path d="m100.41 28.64c0 1.57-1.17 2.54-3 2.54h-1.66v2.06h-1.32v-7.14h2.93c1.88 0 3.05.96 3.05 2.54zm-1.34 0c0-.9-.6-1.42-1.77-1.42h-1.55v2.84h1.55c1.17 0 1.77-.52 1.77-1.42z"/><path d="m102.34 29.67a3.85 3.85 0 1 1 3.85 3.67 3.66 3.66 0 0 1 -3.85-3.67zm6.36 0a2.51 2.51 0 1 0 -2.51 2.51 2.43 2.43 0 0 0 2.51-2.51z"/><path d="m112.4 30.13v-4h1.33v4c0 1.47.66 2.1 1.82 2.1s1.8-.63 1.8-2.1v-4h1.31v4a3.13 3.13 0 1 1 -6.26 0z"/><path d="m126.21 33.24-1.46-2.09h-1.89v2.08h-1.32v-7.13h2.93c1.88 0 3 1 3 2.54a2.29 2.29 0 0 1 -1.47 2.26l1.65 2.34zm-1.8-6h-1.55v2.85h1.55c1.17 0 1.77-.53 1.77-1.43s-.6-1.44-1.77-1.44z"/><path d="m94.43 37.34h1.32v6h3.74v1.13h-5.06z"/><path d="m102.2 37.68a2.26 2.26 0 0 1 -.22.88l-.53 1.44h-.83l.41-1.57a.77.77 0 0 1 -.48-.76.83.83 0 1 1 1.65 0z"/><path d="m108.86 42.83h-3.57l-.7 1.66h-1.37l3.22-7.15h1.3l3.26 7.15h-1.39zm-.44-1-1.34-3.12-1.34 3.12z"/><path d="m112.28 40.91a3.64 3.64 0 0 1 3.83-3.67 3.59 3.59 0 0 1 2.82 1.2l-.85.8a2.53 2.53 0 0 0 -1.91-.84 2.51 2.51 0 1 0 0 5 2.49 2.49 0 0 0 1.91-.84l.85.81a3.6 3.6 0 0 1 -2.83 1.2 3.64 3.64 0 0 1 -3.82-3.66z"/><path d="m120.57 40.91a3.86 3.86 0 0 1 6.65-2.47l-.86.8a2.51 2.51 0 0 0 -1.91-.84 2.51 2.51 0 1 0 0 5 2.48 2.48 0 0 0 1.91-.84l.86.81a3.86 3.86 0 0 1 -6.65-2.48z"/><path d="m134.87 43.37v1.12h-5.36v-7.15h5.22v1.12h-3.89v1.85h3.45v1.09h-3.45v2z"/><path d="m136.77 43.73.46-1a4 4 0 0 0 2.35.79c1.12 0 1.59-.4 1.59-.93 0-1.54-4.25-.53-4.25-3.19 0-1.15.92-2.13 2.88-2.13a4.61 4.61 0 0 1 2.38.63l-.42 1a4.08 4.08 0 0 0 -2-.56c-1.1 0-1.55.43-1.55 1 0 1.52 4.23.53 4.23 3.16 0 1.14-.93 2.12-2.89 2.12a4.59 4.59 0 0 1 -2.78-.89z"/><path d="m144.21 43.73.46-1a3.92 3.92 0 0 0 2.35.79c1.11 0 1.58-.4 1.58-.93 0-1.54-4.24-.53-4.24-3.19 0-1.15.92-2.13 2.88-2.13a4.58 4.58 0 0 1 2.37.63l-.41 1a4.08 4.08 0 0 0 -2-.56c-1.11 0-1.55.43-1.55 1 0 1.52 4.23.53 4.23 3.16 0 1.14-.93 2.12-2.89 2.12a4.59 4.59 0 0 1 -2.78-.89z"/><path d="m152.25 37.34h1.32v7.15h-1.32z"/><path d="m162.87 42.55c0 1.22-1 1.94-2.8 1.94h-3.55v-7.15h3.35c1.71 0 2.63.73 2.63 1.86a1.71 1.71 0 0 1 -.92 1.57 1.77 1.77 0 0 1 1.29 1.78zm-5-4.17v2h1.87c.92 0 1.44-.32 1.44-1s-.52-1-1.44-1zm3.68 4c0-.71-.54-1-1.54-1h-2.14v2.06h2.13c1 0 1.53-.31 1.53-1.03z"/><path d="m165.31 37.34h1.32v7.15h-1.32z"/><path d="m169.58 37.34h1.33v6h3.73v1.13h-5.06z"/><path d="m176.71 37.34h1.29v7.15h-1.33z"/><path d="m182.44 38.47h-2.37v-1.13h6.06v1.13h-2.37v6h-1.32z"/><path d="m193.51 43.37v1.12h-5.36v-7.15h5.21v1.12h-3.88v1.85h3.44v1.09h-3.44v2zm-2.51-7.16h-1.11l1.38-1.39h1.5z"/></g><path d="m53.64 43.39v-26.13a4.18 4.18 0 0 0 -2.1-3.63l-9.42-5.45-9.43 5.45a4.19 4.19 0 0 0 -2.09 3.63v26.13a4.21 4.21 0 0 0 2.09 3.61l9.43 5.44 9.42-5.44a4.2 4.2 0 0 0 2.1-3.61z" fill="#26296a"/><path d="m53.64 36.89v6.5a4.2 4.2 0 0 1 -2.1 3.61l-9.42 5.44 13.2 7.62a4.2 4.2 0 0 0 4.2 0l22.62-13.06a4.2 4.2 0 0 0 2.1-3.63v-16.06l-1.93.78c-13.31 5.34-22.45 7.83-28.67 8.8z" fill="#00b9d6"/><path d="m84.24 17.89v-.63a4.18 4.18 0 0 0 -2.1-3.63l-22.62-13.07a4.2 4.2 0 0 0 -4.2 0l-13.2 7.62 9.42 5.45a4.18 4.18 0 0 1 2.1 3.63v11.53a96.58 96.58 0 0 0 12.64-3.64c5.64-1.97 11.81-4.48 17.96-7.26z" fill="#00b9d6"/><path d="m30.6 23.76v-6.5a4.19 4.19 0 0 1 2.09-3.63l9.43-5.45-13.2-7.62a4.2 4.2 0 0 0 -4.2 0l-22.62 13.07a4.18 4.18 0 0 0 -2.1 3.63v16.08l1.93-.78c13.34-5.34 22.45-7.84 28.67-8.8z" fill="#cab6d9"/><path d="m0 42.76v.63a4.2 4.2 0 0 0 2.1 3.61l22.62 13.08a4.2 4.2 0 0 0 4.2 0l13.2-7.62-9.43-5.46a4.21 4.21 0 0 1 -2.09-3.63v-11.51a96.21 96.21 0 0 0 -12.6 3.63c-5.69 1.97-11.85 4.51-18 7.27z" fill="#cab6d9"/><path d="m66.28 25.15a96.58 96.58 0 0 1 -12.64 3.64c-5.37 1.07-7.45.62-8 .41a6.09 6.09 0 0 0 -3.38-4.9c-1.66-.86-5-1.58-11.63-.54-6.22 1-15.33 3.46-28.67 8.8l-1.96.78v9.42c6.15-2.79 12.31-5.3 18-7.27a96.21 96.21 0 0 1 12.6-3.63c5.37-1.08 7.45-.62 8-.42a6.12 6.12 0 0 0 3.4 4.91c1.49.77 4.32 1.42 9.67.8.62-.07 1.27-.16 2-.26 6.22-1 15.33-3.46 28.67-8.8l1.93-.78v-9.42c-6.18 2.78-12.35 5.29-17.99 7.26z" fill="#fff"/></svg>
