<svg xmlns="http://www.w3.org/2000/svg" viewBox="0 0 1599.78 432.97"><path fill="#26296a" d="M864.1 309.75V123.21a29.93 29.93 0 0 0-15-25.93l-67.26-38.85-67.29 38.85a29.94 29.94 0 0 0-15 25.93v186.54a29.93 29.93 0 0 0 15 25.93l67.29 38.85 67.29-38.85a29.93 29.93 0 0 0 14.97-25.93Z"/><path fill="#00b8d5" d="M864.1 263.35v46.4a29.93 29.93 0 0 1-15 25.93l-67.29 38.85L876.1 429a29.93 29.93 0 0 0 29.9 0l161.55-93.27a30 30 0 0 0 15-25.93V195q-7 2.85-13.76 5.58c-95.27 38.07-160.32 55.88-204.69 62.77ZM1082.56 127.7v-4.49a30 30 0 0 0-15-25.93L906 4a29.93 29.93 0 0 0-29.9 0l-94.26 54.43 67.29 38.85a29.93 29.93 0 0 1 15 25.93v82.32c21.75-4.35 51-12.23 90.26-25.95 40.25-14.1 84.29-31.99 128.17-51.88Z"/><path fill="#c8b5d8" d="M699.58 169.61v-46.4a29.93 29.93 0 0 1 15-25.93l67.29-38.85L687.58 4a29.93 29.93 0 0 0-29.94 0L496.09 97.28a30 30 0 0 0-15 25.93V238q7-2.85 13.76-5.57c95.31-38.11 160.36-55.92 204.73-62.82ZM481.12 305.27v4.48a30 30 0 0 0 15 25.93L657.64 429a29.93 29.93 0 0 0 29.94 0l94.26-54.42-67.29-38.85a29.93 29.93 0 0 1-15-25.93v-82.36c-21.75 4.35-51.05 12.23-90.26 25.94-40.29 14.1-84.29 32-128.17 51.89Z"/><path fill="#ffffff" d="M954.36 179.58c-39.21 13.72-68.51 21.6-90.26 25.95-38.34 7.68-53.19 4.42-57.35 2.95-1.47-15-10-27.68-24.16-35-11.79-6.11-35.58-11.22-83-3.85-44.37 6.9-109.42 24.71-204.7 62.83q-6.79 2.72-13.76 5.57v67.26C525 285.38 569 267.48 609.32 253.38c39.21-13.71 68.51-21.59 90.26-25.94 38.34-7.68 53.19-4.42 57.35-3 1.47 15 10 27.68 24.16 35 10.58 5.48 30.78 10.15 69 5.75q6.61-.76 14-1.91c44.37-6.89 109.42-24.7 204.7-62.81q6.79-2.73 13.76-5.58V127.7c-43.87 19.89-87.91 37.78-128.19 51.88Z"/><path fill="#2b2e38" d="M329.65 133.18h-12.57v-6h32.18v6h-12.57v32h-7ZM391.8 127.22v37.92h-7v-16.25h-19.65v16.25h-7v-37.92h7v15.66h19.61v-15.66ZM432.88 159.24v5.9h-28.45v-37.92h27.69v5.91h-20.64V143h18.31v5.79h-18.31v10.46ZM30 221.4H11l-3.74 8.77H0l17.07-37.92H24l17.12 37.92h-7.37Zm-2.33-5.53-7.15-16.58-7.1 16.58ZM43.52 211.21c0-11.32 8.66-19.5 20.31-19.5 6.18 0 11.49 2.22 15 6.34l-4.55 4.28a13.35 13.35 0 0 0-10.14-4.45c-7.85 0-13.54 5.53-13.54 13.33s5.69 13.33 13.54 13.33A13.19 13.19 0 0 0 74.29 220l4.55 4.34c-3.52 4.11-8.83 6.34-15.06 6.34-11.6.04-20.26-8.15-20.26-19.47ZM83.45 211.21c0-11.32 8.67-19.5 20.31-19.5 6.18 0 11.49 2.22 15 6.34l-4.55 4.28a13.31 13.31 0 0 0-10.13-4.45c-7.86 0-13.54 5.53-13.54 13.33s5.68 13.33 13.54 13.33a13.15 13.15 0 0 0 10.13-4.5l4.55 4.34c-3.52 4.11-8.83 6.34-15.06 6.34-11.58 0-20.25-8.19-20.25-19.51ZM155.35 224.27v5.9h-28.44v-37.92h27.68v5.9H134V208h18.31v5.79H134v10.46ZM161.37 226.16l2.44-5.47a21 21 0 0 0 12.52 4.17c5.9 0 8.39-2.11 8.39-4.93 0-8.18-22.54-2.81-22.54-16.9 0-6.12 4.88-11.32 15.28-11.32a24 24 0 0 1 12.63 3.36l-2.23 5.47a21 21 0 0 0-10.45-3c-5.85 0-8.24 2.27-8.24 5.15 0 8.07 22.49 2.81 22.49 16.74 0 6.06-4.93 11.27-15.33 11.27-5.91.02-11.82-1.83-14.96-4.54ZM196.81 226.16l2.44-5.47a21 21 0 0 0 12.52 4.17c5.9 0 8.39-2.11 8.39-4.93 0-8.18-22.54-2.81-22.54-16.9 0-6.12 4.88-11.32 15.28-11.32a24 24 0 0 1 12.63 3.36l-2.22 5.47a21.06 21.06 0 0 0-10.46-3c-5.85 0-8.24 2.27-8.24 5.15 0 8.07 22.49 2.81 22.49 16.74 0 6.06-4.93 11.27-15.33 11.27-5.91.02-11.77-1.83-14.96-4.54ZM235.45 192.25h7v37.92h-7ZM287.78 219.88c0 6.5-5.09 10.29-14.84 10.29h-18.85v-37.92h17.77c9.1 0 14 3.85 14 9.86a9.08 9.08 0 0 1-4.88 8.34 9.34 9.34 0 0 1 6.8 9.43Zm-26.65-22.1v10.45h10c4.88 0 7.64-1.73 7.64-5.2s-2.76-5.25-7.64-5.25Zm19.56 21.4c0-3.8-2.87-5.48-8.18-5.48h-11.38v11h11.38c5.31-.05 8.18-1.7 8.18-5.52ZM295.6 192.25h7v37.92h-7ZM314.23 192.25h7v32h19.83v6h-26.83ZM348.05 192.25h7v37.92h-7ZM375.47 198.21H362.9v-6h32.18v6h-12.57v32h-7ZM423.28 216.79v13.38h-7V216.9l-14.9-24.65h7.53L420 210.72l11.21-18.47h6.93ZM144.27 289.3v5.9h-28.45v-37.92h27.69v5.9h-20.64V273h18.31v5.8h-18.31v10.5ZM178.46 295.2l-10.29-14.41L158 295.2h-8l14.09-19.34-13.33-18.58h8l9.69 13.49 9.55-13.49h7.64l-13.27 18.31 14.25 19.61ZM188.6 276.24c0-11.32 8.67-19.5 20.32-19.5 6.17 0 11.48 2.22 15 6.33l-4.55 4.28a13.34 13.34 0 0 0-10.13-4.44c-7.85 0-13.54 5.53-13.54 13.33s5.69 13.33 13.54 13.33a13.19 13.19 0 0 0 10.13-4.5l4.55 4.33c-3.52 4.12-8.83 6.34-15.06 6.34-11.59 0-20.26-8.18-20.26-19.5ZM264.67 257.28v37.92h-7V279H238v16.2h-7v-37.92h7v15.65h19.61v-15.65ZM300.82 286.42h-19l-3.74 8.78h-7.26l17.06-37.92h6.94L312 295.2h-7.37Zm-2.33-5.52-7.15-16.58-7.1 16.58ZM351.86 257.28v37.92h-5.8l-20.91-25.68v25.68h-7v-37.92H324L344.87 283v-25.72ZM387.14 275.81h6.67v19.39H388V293a18 18 0 0 1-10.19 2.76c-10.29 0-19.28-6.82-19.28-19.23 0-11.59 8.66-19.77 20.53-19.77 6.34 0 11.65 2.11 15.22 6.17l-4.44 4.33a14.1 14.1 0 0 0-10.45-4.33c-8.08 0-13.76 5.47-13.76 13.55 0 8.72 6.12 13.27 12.83 13.27a13.48 13.48 0 0 0 8.67-3ZM432.88 289.3v5.9h-28.45v-37.92h27.69v5.9h-20.64V273h18.31v5.8h-18.31v10.5ZM1127.75 146.45c0-11.32 8.66-19.5 20.32-19.5 6.17 0 11.48 2.22 15 6.34l-4.55 4.28a13.32 13.32 0 0 0-10.13-4.44c-7.86 0-13.55 5.52-13.55 13.32s5.69 13.33 13.55 13.33a13.19 13.19 0 0 0 10.13-4.49l4.55 4.33c-3.52 4.12-8.83 6.34-15.06 6.34-11.6.04-20.26-8.18-20.26-19.51ZM1167.68 146.45c0-11.21 8.67-19.5 20.43-19.5s20.42 8.24 20.42 19.5-8.66 19.55-20.42 19.55-20.43-8.33-20.43-19.55Zm33.76 0a13.33 13.33 0 1 0-13.33 13.33 12.92 12.92 0 0 0 13.33-13.33ZM1251.07 127.49v37.93h-5.79l-20.92-25.68v25.68h-7v-37.93h5.79l20.91 25.68v-25.68ZM1296.32 127.49v37.93h-5.8l-20.91-25.68v25.68h-7v-37.93h5.8l20.91 25.68v-25.68ZM1336.31 159.51v5.91h-28.44v-37.93h27.68v5.91h-20.64v9.86h18.31v5.79h-18.31v10.46ZM1342.66 146.45c0-11.32 8.67-19.5 20.32-19.5 6.17 0 11.48 2.22 15 6.34l-4.56 4.28a13.32 13.32 0 0 0-10.13-4.44c-7.85 0-13.54 5.52-13.54 13.32s5.69 13.33 13.54 13.33a13.19 13.19 0 0 0 10.13-4.49l4.56 4.33c-3.53 4.12-8.84 6.34-15.07 6.34-11.58.04-20.25-8.18-20.25-19.51ZM1393.37 133.45h-12.56v-6H1413v6h-12.57v32h-7.05ZM1448.1 159.51v5.91h-28.44v-37.93h27.68v5.91h-20.64v9.86h18.3v5.79h-18.3v10.46ZM1457 148.89v-21.4h7v21.13c0 7.8 3.52 11.16 9.64 11.16s9.59-3.36 9.59-11.16v-21.13h6.94v21.4c0 11.05-6.23 17.07-16.58 17.07s-16.59-6.02-16.59-17.07ZM1526.24 165.42l-7.75-11.11a14.34 14.34 0 0 1-1.46.05h-8.56v11.06h-7v-37.93H1517c10 0 16.14 5.1 16.14 13.49a12.13 12.13 0 0 1-8.07 12l8.72 12.46Zm-9.53-32h-8.24v15.12h8.24c6.17 0 9.37-2.82 9.37-7.59s-3.2-7.5-9.37-7.5ZM1162.2 206c0 8.34-6.17 13.49-16.14 13.49h-8.56v10.94h-7v-37.91h15.6c9.9 0 16.1 5.09 16.1 13.48Zm-7.09 0c0-4.77-3.2-7.53-9.37-7.53h-8.24v15.06h8.24c6.17.01 9.37-2.75 9.37-7.53ZM1168.44 211.48c0-11.21 8.67-19.5 20.43-19.5s20.42 8.23 20.42 19.5-8.66 19.52-20.42 19.52-20.43-8.3-20.43-19.52Zm33.76 0a13.33 13.33 0 1 0-13.33 13.33 12.92 12.92 0 0 0 13.33-13.33ZM1217.81 213.92v-21.4h7v21.13c0 7.8 3.52 11.16 9.65 11.16s9.58-3.36 9.58-11.16v-21.13h6.96v21.4c0 11.05-6.23 17.07-16.58 17.07s-16.61-5.99-16.61-17.07ZM1287.05 230.44l-7.74-11.1a14.34 14.34 0 0 1-1.46 0h-8.57v11.05h-7v-37.87h15.61c10 0 16.14 5.09 16.14 13.49a12.13 12.13 0 0 1-8.07 12l8.72 12.46Zm-9.53-32h-8.24v15.11h8.24c6.18 0 9.37-2.81 9.37-7.58s-3.19-7.49-9.37-7.49ZM1130.46 257.55h7v32h19.83v6h-26.87ZM1167.68 259.34c0 1.24-.22 2.16-1.19 4.66l-2.82 7.69h-4.38l2.16-8.34a4.06 4.06 0 0 1-2.54-4 4.39 4.39 0 1 1 8.77 0ZM1199 286.69h-19l-3.74 8.78H1169l17.07-37.92h6.93l17.12 37.92h-7.36Zm-2.33-5.52-7.15-16.58-7.1 16.58ZM1213.09 276.51c0-11.32 8.67-19.5 20.32-19.5 6.18 0 11.48 2.22 15 6.34l-4.54 4.27a13.37 13.37 0 0 0-10.13-4.44c-7.86 0-13.55 5.53-13.55 13.33s5.69 13.33 13.55 13.33a13.18 13.18 0 0 0 10.13-4.5l4.54 4.34c-3.52 4.11-8.82 6.33-15.06 6.33-11.59-.01-20.26-8.18-20.26-19.5ZM1253 276.51c0-11.32 8.67-19.5 20.32-19.5 6.17 0 11.48 2.22 15 6.34l-4.55 4.27a13.35 13.35 0 0 0-10.13-4.44c-7.86 0-13.54 5.53-13.54 13.33s5.68 13.33 13.54 13.33a13.17 13.17 0 0 0 10.13-4.5l4.55 4.34c-3.52 4.11-8.83 6.33-15.06 6.33-11.56-.01-20.26-8.18-20.26-19.5ZM1324.93 289.57v5.9h-28.44v-37.92h27.68v5.9h-20.64v9.86h18.31v5.8h-18.31v10.46ZM1331 291.46l2.44-5.47a21 21 0 0 0 12.51 4.17c5.91 0 8.4-2.11 8.4-4.93 0-8.18-22.54-2.81-22.54-16.9 0-6.12 4.88-11.32 15.28-11.32a24 24 0 0 1 12.63 3.36l-2.23 5.47a21 21 0 0 0-10.45-3c-5.85 0-8.23 2.27-8.23 5.14 0 8.08 22.48 2.82 22.48 16.75 0 6.06-4.93 11.26-15.34 11.26-5.95.01-11.86-1.82-14.95-4.53ZM1366.39 291.46l2.44-5.47a21 21 0 0 0 12.51 4.17c5.91 0 8.4-2.11 8.4-4.93 0-8.18-22.54-2.81-22.54-16.9 0-6.12 4.88-11.32 15.28-11.32a23.93 23.93 0 0 1 12.62 3.36l-2.22 5.47a21 21 0 0 0-10.45-3c-5.85 0-8.24 2.27-8.24 5.14 0 8.08 22.48 2.82 22.48 16.75 0 6.06-4.93 11.26-15.33 11.26-5.9.01-11.81-1.82-14.95-4.53ZM1405 257.55h7v37.92h-7ZM1457.37 285.18c0 6.5-5.09 10.29-14.84 10.29h-18.86v-37.92h17.77c9.11 0 14 3.84 14 9.86a9.09 9.09 0 0 1-4.87 8.34 9.34 9.34 0 0 1 6.8 9.43Zm-26.65-22.11v10.46h10c4.88 0 7.64-1.73 7.64-5.2s-2.76-5.26-7.64-5.26Zm19.55 21.4c0-3.79-2.87-5.47-8.18-5.47h-11.37v11h11.37c5.31 0 8.18-1.73 8.18-5.53ZM1466.27 257.55h7v37.92h-7ZM1484.91 257.55h7v32h19.83v6h-26.87ZM1518.72 257.55h7v37.92h-7ZM1545.06 263.51h-12.57v-6h32.18v6h-12.57v32h-7ZM1599.78 289.57v5.9h-28.44v-37.92H1599v5.9h-20.64v9.86h18.31v5.8h-18.31v10.46Zm-13.22-37.11h-5.85L1588 245h8Z"/></svg>
