<svg viewBox="0 0 187.68 61.35" xmlns="http://www.w3.org/2000/svg"><g fill="currentColor"><path d="m96.73 16.61h-2.42v-1.15h6.2v1.15h-2.42v6.16h-1.36z"/><path d="m109.08 15.46v7.31h-1.36v-3.13h-3.78v3.13h-1.36v-7.31h1.36v3h3.78v-3z"/><path d="m117.58 21.63v1.14h-5.49v-7.31h5.34v1.14h-4v1.9h3.57v1.12h-3.53v2z"/><path d="m100 32.62h-3.67l-.72 1.69h-1.4l3.29-7.31h1.34l3.3 7.31h-1.42zm-.45-1.07-1.38-3.19-1.37 3.19z"/><path d="m103.49 30.66a4 4 0 0 1 6.82-2.54l-.88.82a2.59 2.59 0 0 0 -2-.85 2.57 2.57 0 1 0 0 5.14 2.58 2.58 0 0 0 2-.87l.88.84a4 4 0 0 1 -6.82-2.54z"/><path d="m112 30.66a3.73 3.73 0 0 1 3.92-3.77 3.68 3.68 0 0 1 2.89 1.23l-.88.82a2.57 2.57 0 0 0 -2-.85 2.57 2.57 0 1 0 0 5.14 2.55 2.55 0 0 0 2-.87l.88.84a4 4 0 0 1 -6.81-2.54z"/><path d="m126.63 33.17v1.14h-5.49v-7.31h5.34v1.14h-4v1.86h3.52v1.12h-3.5v2z"/><path d="m128.57 33.54.47-1.06a4 4 0 0 0 2.42.81c1.14 0 1.62-.41 1.62-.95 0-1.58-4.35-.54-4.35-3.26 0-1.18.94-2.19 3-2.19a4.57 4.57 0 0 1 2.43.65l-.43 1.06a4 4 0 0 0 -2-.58c-1.13 0-1.59.44-1.59 1 0 1.55 4.34.54 4.34 3.22 0 1.18-.95 2.18-3 2.18a4.75 4.75 0 0 1 -2.91-.88z"/><path d="m136.19 33.54.47-1.06a4 4 0 0 0 2.42.81c1.14 0 1.62-.41 1.62-.95 0-1.58-4.35-.54-4.35-3.26 0-1.18.94-2.19 3-2.19a4.62 4.62 0 0 1 2.43.65l-.43 1.06a4 4 0 0 0 -2-.58c-1.13 0-1.59.44-1.59 1 0 1.55 4.34.54 4.34 3.22 0 1.18-1 2.18-3 2.18a4.75 4.75 0 0 1 -2.91-.88z"/><path d="m144.43 27h1.36v7.31h-1.36z"/><path d="m155.31 32.33c0 1.25-1 2-2.87 2h-3.63v-7.33h3.43c1.75 0 2.69.74 2.69 1.9a1.74 1.74 0 0 1 -.94 1.61 1.81 1.81 0 0 1 1.32 1.82zm-5.14-4.27v2h1.92c.94 0 1.47-.33 1.47-1s-.53-1-1.47-1zm3.77 4.13c0-.73-.56-1-1.58-1h-2.19v2.11h2.19c1.02-.05 1.58-.38 1.58-1.11z"/><path d="m157.81 27h1.35v7.31h-1.35z"/><path d="m162.18 27h1.36v6.16h3.83v1.15h-5.19z"/><path d="m169.49 27h1.36v7.31h-1.36z"/><path d="m175.35 28.15h-2.42v-1.15h6.21v1.15h-2.43v6.16h-1.36z"/><path d="m184.82 31.73v2.58h-1.36v-2.56l-2.88-4.75h1.42l2.14 3.56 2.2-3.56h1.34z"/><path d="m100.73 44.72v1.14h-5.48v-7.32h5.34v1.14h-4v1.9h3.54v1.12h-3.53v2z"/><path d="m107.82 45.86-2-2.78-2 2.78h-1.55l2.73-3.74-2.57-3.58h1.57l1.87 2.6 1.85-2.6h1.48l-2.56 3.53 2.75 3.79z"/><path d="m110.71 42.2a4 4 0 0 1 6.82-2.54l-.88.82a2.57 2.57 0 0 0 -2-.85 2.57 2.57 0 1 0 2 4.27l.88.84a4 4 0 0 1 -6.82-2.54z"/><path d="m126.38 38.54v7.32h-1.38v-3.14h-3.78v3.14h-1.36v-7.32h1.36v3h3.78v-3z"/><path d="m134.13 44.16h-3.65l-.72 1.7h-1.41l3.3-7.32h1.35l3.31 7.32h-1.42zm-.45-1.06-1.37-3.2-1.37 3.2z"/><path d="m144.76 38.54v7.32h-1.12l-4-5v5h-1.35v-7.32h1.12l4 5v-5z"/><path d="m152.77 42.11h1.28v2.89a4.6 4.6 0 0 1 -2.86.93 3.77 3.77 0 1 1 3-6.33l-.86.83a2.72 2.72 0 0 0 -2-.83 2.57 2.57 0 1 0 0 5.14 3 3 0 0 0 1.51-.38z"/><path d="m162.37 44.72v1.14h-5.48v-7.32h5.34v1.14h-4v1.9h3.54v1.12h-3.54v2z"/></g><path d="m53.62 37.13v6.4a4.14 4.14 0 0 1 -2.06 3.57l-9.28 5.36 13 7.5a4.17 4.17 0 0 0 4.13 0l22.26-12.86a4.14 4.14 0 0 0 2.06-3.57v-15.82l-1.9.76c-13.13 5.26-22.09 7.71-28.21 8.66z" fill="none" stroke="currentColor" stroke-miterlimit="10" stroke-width="1.67"/><path d="m83.73 18.44v-.62a4.14 4.14 0 0 0 -2.06-3.58l-22.27-12.85a4.12 4.12 0 0 0 -4.13 0l-13 7.5 9.28 5.35a4.14 4.14 0 0 1 2.06 3.58v11.34a94.42 94.42 0 0 0 12.44-3.57c5.56-1.95 11.63-4.41 17.68-7.15z" fill="none" stroke="currentColor" stroke-miterlimit="10" stroke-width="1.67"/><path d="m30.94 24.21v-6.39a4.13 4.13 0 0 1 2.06-3.58l9.27-5.35-13-7.5a4.12 4.12 0 0 0 -4.13 0l-22.24 12.85a4.12 4.12 0 0 0 -2.06 3.58v15.82l1.89-.77c13.13-5.25 22.1-7.71 28.21-8.66z" fill="none" stroke="currentColor" stroke-miterlimit="10" stroke-width="1.67"/><path d="m.84 42.91v.62a4.12 4.12 0 0 0 2.06 3.57l22.26 12.9a4.17 4.17 0 0 0 4.13 0l13-7.5-9.29-5.4a4.13 4.13 0 0 1 -2.07-3.57v-11.35a95.67 95.67 0 0 0 -12.43 3.58c-5.5 1.94-11.62 4.41-17.66 7.15z" fill="none" stroke="currentColor" stroke-miterlimit="10" stroke-width="1.67"/><path d="m66 25.59a94.27 94.27 0 0 1 -12.4 3.57c-5.28 1.06-7.32.61-7.89.41a6 6 0 0 0 -3.32-4.83c-1.63-.84-4.9-1.54-11.42-.53-6.1.95-15 3.41-28.16 8.66-.62.25-1.53.51-2 .75v9.27c5.87-2.72 12.19-5.19 17.74-7.13a95.13 95.13 0 0 1 12.45-3.58c5.27-1.06 7.31-.61 7.89-.4a6 6 0 0 0 3.32 4.82c1.45.76 4.23 1.4 9.5.8.6-.08 1.24-.16 1.92-.27 6.1-1 15.05-3.4 28.15-8.66.62-.25 1.42-.5 2-.76v-9.27c-6.01 2.74-12.23 5.2-17.78 7.15z" fill="none" stroke="currentColor" stroke-miterlimit="10" stroke-width="1.67"/></svg>
