<svg viewBox="0 0 194.17 61.35" xmlns="http://www.w3.org/2000/svg"><g fill="currentColor"><path d="m94.58 18a3.87 3.87 0 0 1 6.65-2.48l-.85.81a2.53 2.53 0 0 0 -1.91-.84 2.51 2.51 0 1 0 0 5 2.47 2.47 0 0 0 1.91-.85l.85.82a3.59 3.59 0 0 1 -2.83 1.24 3.64 3.64 0 0 1 -3.82-3.7z"/><path d="m102.87 18a3.85 3.85 0 1 1 3.84 3.67 3.65 3.65 0 0 1 -3.84-3.67zm6.35 0a2.51 2.51 0 1 0 -2.51 2.51 2.43 2.43 0 0 0 2.51-2.51z"/><path d="m119.33 14.46v7.14h-1.09l-3.94-4.83v4.83h-1.3v-7.14h1.09l3.91 4.84v-4.84z"/><path d="m128.62 14.46v7.14h-1.09l-3.94-4.83v4.83h-1.32v-7.14h1.09l3.94 4.84v-4.84z"/><path d="m136.91 20.49v1.11h-5.35v-7.14h5.21v1.11h-3.89v1.86h3.45v1.09h-3.45v2z"/><path d="m138.87 18a3.87 3.87 0 0 1 6.65-2.48l-.85.81a2.53 2.53 0 0 0 -1.91-.84 2.51 2.51 0 1 0 0 5 2.47 2.47 0 0 0 1.91-.85l.85.82a3.59 3.59 0 0 1 -2.83 1.19 3.64 3.64 0 0 1 -3.82-3.65z"/><path d="m149.19 15.58h-2.37v-1.12h6.06v1.12h-2.37v6h-1.32z"/><path d="m160.26 20.49v1.11h-5.36v-7.14h5.21v1.11h-3.88v1.86h3.45v1.09h-3.45v2z"/><path d="m162.7 18.49v-4h1.3v4c0 1.47.67 2.1 1.82 2.1s1.8-.63 1.8-2.1v-4h1.38v4a3.13 3.13 0 1 1 -6.25 0z"/><path d="m176.5 21.6-1.5-2.09h-1.89v2.09h-1.32v-7.14h2.94c1.87 0 3 1 3 2.54a2.29 2.29 0 0 1 -1.52 2.26l1.64 2.34zm-1.8-6h-1.55v2.85h1.55c1.17 0 1.77-.53 1.77-1.43s-.6-1.44-1.77-1.44z"/><path d="m101.07 28.24c0 1.58-1.16 2.54-3 2.54h-1.65v2.07h-1.33v-7.15h2.91c1.91 0 3.07.96 3.07 2.54zm-1.34 0c0-.89-.6-1.41-1.76-1.41h-1.55v2.83h1.58c1.13 0 1.73-.52 1.73-1.42z"/><path d="m103 29.27a3.85 3.85 0 1 1 3.86 3.73 3.66 3.66 0 0 1 -3.86-3.73zm6.36 0a2.51 2.51 0 1 0 -2.51 2.51 2.44 2.44 0 0 0 2.52-2.51z"/><path d="m113.07 29.73v-4h1.33v4c0 1.47.66 2.1 1.81 2.1s1.81-.63 1.81-2.1v-4h1.3v4a3.13 3.13 0 1 1 -6.25 0z"/><path d="m126.87 32.85-1.46-2.1h-1.88v2.09h-1.33v-7.14h2.94c1.88 0 3 1 3 2.54a2.28 2.28 0 0 1 -1.52 2.26l1.64 2.35zm-1.79-6h-1.55v2.84h1.55c1.16 0 1.76-.53 1.76-1.43s-.6-1.43-1.76-1.43z"/><path d="m95.09 37h1.33v6h3.73v1.12h-5.06z"/><path d="m102.87 37.28a2.11 2.11 0 0 1 -.23.88l-.53 1.45h-.83l.41-1.57a.78.78 0 0 1 -.48-.76.83.83 0 1 1 1.66 0z"/><path d="m109.53 42.44h-3.53l-.71 1.65h-1.36l3.17-7.09h1.31l3.22 7.14h-1.39zm-.44-1-1.35-3.13-1.33 3.13z"/><path d="m113 40.52a3.64 3.64 0 0 1 3.82-3.67 3.59 3.59 0 0 1 2.78 1.15l-.86.81a2.48 2.48 0 0 0 -1.91-.84 2.51 2.51 0 1 0 0 5 2.49 2.49 0 0 0 1.91-.85l.86.82a3.86 3.86 0 0 1 -6.6-2.42z"/><path d="m121.23 40.52a3.64 3.64 0 0 1 3.83-3.67 3.59 3.59 0 0 1 2.82 1.15l-.85.81a2.49 2.49 0 0 0 -1.91-.84 2.51 2.51 0 1 0 0 5 2.5 2.5 0 0 0 1.91-.85l.85.82a3.86 3.86 0 0 1 -6.65-2.48z"/><path d="m135.54 43v1.11h-5.36v-7.11h5.21v1.11h-3.88v1.86h3.49v1.03h-3.44v2z"/><path d="m137.43 43.33.46-1a4 4 0 0 0 2.36.79c1.11 0 1.58-.4 1.58-.93 0-1.54-4.24-.53-4.24-3.18 0-1.16.91-2.13 2.87-2.13a4.49 4.49 0 0 1 2.38.63l-.42 1a3.92 3.92 0 0 0 -2-.56c-1.1 0-1.55.43-1.55 1 0 1.52 4.24.53 4.24 3.15 0 1.14-.93 2.12-2.89 2.12a4.64 4.64 0 0 1 -2.79-.89z"/><path d="m144.87 43.33.46-1a4 4 0 0 0 2.36.79c1.11 0 1.58-.4 1.58-.93 0-1.54-4.25-.53-4.25-3.18 0-1.16.92-2.13 2.88-2.13a4.49 4.49 0 0 1 2.38.63l-.42 1a3.94 3.94 0 0 0 -2-.56c-1.1 0-1.55.43-1.55 1 0 1.52 4.23.53 4.23 3.15 0 1.14-.92 2.12-2.88 2.12a4.62 4.62 0 0 1 -2.79-.89z"/><path d="m152.91 37h1.33v7.14h-1.33z"/><path d="m163.53 42.15c0 1.23-1 1.94-2.79 1.94h-3.55v-7.09h3.34c1.72 0 2.63.72 2.63 1.85a1.72 1.72 0 0 1 -.91 1.58 1.75 1.75 0 0 1 1.28 1.72zm-5-4.16v2h1.88c.92 0 1.44-.33 1.44-1s-.52-1-1.44-1zm3.69 4c0-.72-.55-1-1.54-1h-2.15v2.06h2.15c.97 0 1.52-.32 1.52-1.05z"/><path d="m166 37h1.33v7.14h-1.33z"/><path d="m170.25 37h1.32v6h3.74v1.12h-5.06z"/><path d="m177.38 37h1.32v7.14h-1.32z"/><path d="m183.1 38.07h-2.37v-1.07h6.06v1.12h-2.36v6h-1.33z"/><path d="m194.17 43v1.11h-5.36v-7.11h5.19v1.11h-3.89v1.86h3.45v1.03h-3.45v2zm-2.49-7.16h-1.1l1.38-1.4h1.5z"/></g><path d="m53.62 37.13v6.4a4.14 4.14 0 0 1 -2.06 3.57l-9.28 5.36 13 7.5a4.17 4.17 0 0 0 4.13 0l22.26-12.86a4.14 4.14 0 0 0 2.06-3.57v-15.82l-1.9.76c-13.13 5.26-22.09 7.71-28.21 8.66z" fill="none" stroke="currentColor" stroke-miterlimit="10" stroke-width="1.67"/><path d="m83.73 18.44v-.62a4.14 4.14 0 0 0 -2.06-3.58l-22.27-12.85a4.12 4.12 0 0 0 -4.13 0l-13 7.5 9.28 5.35a4.14 4.14 0 0 1 2.06 3.58v11.34a94.42 94.42 0 0 0 12.44-3.57c5.56-1.95 11.63-4.41 17.68-7.15z" fill="none" stroke="currentColor" stroke-miterlimit="10" stroke-width="1.67"/><path d="m30.94 24.21v-6.39a4.13 4.13 0 0 1 2.06-3.58l9.27-5.35-13-7.5a4.12 4.12 0 0 0 -4.13 0l-22.24 12.85a4.12 4.12 0 0 0 -2.06 3.58v15.82l1.89-.77c13.13-5.25 22.1-7.71 28.21-8.66z" fill="none" stroke="currentColor" stroke-miterlimit="10" stroke-width="1.67"/><path d="m.84 42.91v.62a4.12 4.12 0 0 0 2.06 3.57l22.26 12.9a4.17 4.17 0 0 0 4.13 0l13-7.5-9.29-5.4a4.13 4.13 0 0 1 -2.07-3.57v-11.35a95.67 95.67 0 0 0 -12.43 3.58c-5.5 1.94-11.62 4.41-17.66 7.15z" fill="none" stroke="currentColor" stroke-miterlimit="10" stroke-width="1.67"/><path d="m66 25.59a94.27 94.27 0 0 1 -12.4 3.57c-5.28 1.06-7.32.61-7.89.41a6 6 0 0 0 -3.32-4.83c-1.63-.84-4.9-1.54-11.42-.53-6.1.95-15 3.41-28.16 8.66-.62.25-1.53.51-2 .75v9.27c5.87-2.72 12.19-5.19 17.74-7.13a95.13 95.13 0 0 1 12.45-3.58c5.27-1.06 7.31-.61 7.89-.4a6 6 0 0 0 3.32 4.82c1.45.76 4.23 1.4 9.5.8.6-.08 1.24-.16 1.92-.27 6.1-1 15.05-3.4 28.15-8.66.62-.25 1.42-.5 2-.76v-9.27c-6.01 2.74-12.23 5.2-17.78 7.15z" fill="none" stroke="currentColor" stroke-miterlimit="10" stroke-width="1.67"/></svg>
