<svg viewBox="0 0 188.02 60.64" xmlns="http://www.w3.org/2000/svg"><path d="m53.64 43.39v-26.13a4.18 4.18 0 0 0 -2.1-3.63l-9.42-5.45-9.43 5.45a4.19 4.19 0 0 0 -2.09 3.63v26.13a4.21 4.21 0 0 0 2.09 3.61l9.43 5.44 9.42-5.44a4.2 4.2 0 0 0 2.1-3.61z" fill="#26296a"/><path d="m53.64 36.89v6.5a4.2 4.2 0 0 1 -2.1 3.61l-9.42 5.44 13.2 7.62a4.2 4.2 0 0 0 4.2 0l22.62-13.06a4.2 4.2 0 0 0 2.1-3.63v-16.06l-1.93.78c-13.31 5.34-22.45 7.83-28.67 8.8z" fill="#00b9d6"/><path d="m84.24 17.89v-.63a4.18 4.18 0 0 0 -2.1-3.63l-22.62-13.07a4.2 4.2 0 0 0 -4.2 0l-13.2 7.62 9.42 5.45a4.18 4.18 0 0 1 2.1 3.63v11.53a96.58 96.58 0 0 0 12.64-3.64c5.64-1.97 11.81-4.48 17.96-7.26z" fill="#00b9d6"/><path d="m30.6 23.76v-6.5a4.19 4.19 0 0 1 2.09-3.63l9.43-5.45-13.2-7.62a4.2 4.2 0 0 0 -4.2 0l-22.62 13.07a4.18 4.18 0 0 0 -2.1 3.63v16.08l1.93-.78c13.34-5.34 22.45-7.84 28.67-8.8z" fill="#cab6d9"/><path d="m0 42.76v.63a4.2 4.2 0 0 0 2.1 3.61l22.62 13.08a4.2 4.2 0 0 0 4.2 0l13.2-7.62-9.43-5.46a4.21 4.21 0 0 1 -2.09-3.63v-11.51a96.21 96.21 0 0 0 -12.6 3.63c-5.69 1.97-11.85 4.51-18 7.27z" fill="#cab6d9"/><path d="m66.28 25.15a96.58 96.58 0 0 1 -12.64 3.64c-5.37 1.07-7.45.62-8 .41a6.09 6.09 0 0 0 -3.38-4.9c-1.66-.86-5-1.58-11.63-.54-6.22 1-15.33 3.46-28.67 8.8l-1.96.78v9.42c6.15-2.79 12.31-5.3 18-7.27a96.21 96.21 0 0 1 12.6-3.63c5.37-1.08 7.45-.62 8-.42a6.12 6.12 0 0 0 3.4 4.91c1.49.77 4.32 1.42 9.67.8.62-.07 1.27-.16 2-.26 6.22-1 15.33-3.46 28.67-8.8l1.93-.78v-9.42c-6.18 2.78-12.35 5.29-17.99 7.26z" fill="#fff"/><g fill="#2b2e38"><path d="m97.06 16.09h-2.42v-1.15h6.21v1.15h-2.43v6.17h-1.36z"/><path d="m109.42 14.94v7.32h-1.36v-3.14h-3.78v3.14h-1.36v-7.32h1.36v3h3.78v-3z"/><path d="m117.91 21.12v1.14h-5.48v-7.32h5.34v1.14h-4v1.92h3.53v1.1h-3.53v2z"/><path d="m100.33 32.1h-3.66l-.67 1.7h-1.4l3.29-7.32h1.34l3.3 7.32h-1.42zm-.45-1.1-1.38-3.2-1.37 3.2z"/><path d="m103.83 30.14a3.72 3.72 0 0 1 3.92-3.76 3.68 3.68 0 0 1 2.89 1.22l-.88.82a2.57 2.57 0 0 0 -2-.85 2.57 2.57 0 1 0 0 5.14 2.52 2.52 0 0 0 2-.87l.88.84a4 4 0 0 1 -6.81-2.54z"/><path d="m112.31 30.14a4 4 0 0 1 6.82-2.54l-.88.82a2.58 2.58 0 0 0 -2-.85 2.57 2.57 0 1 0 0 5.14 2.53 2.53 0 0 0 2-.87l.88.84a4 4 0 0 1 -6.82-2.54z"/><path d="m127 32.66v1.14h-5.49v-7.32h5.34v1.14h-4v1.9h3.53v1.12h-3.53v2z"/><path d="m128.91 33 .47-1.05a4 4 0 0 0 2.41.8c1.14 0 1.62-.41 1.62-1 0-1.58-4.34-.54-4.34-3.26 0-1.18.94-2.18 2.94-2.18a4.72 4.72 0 0 1 2.44.64l-.45 1.13a4 4 0 0 0 -2-.57c-1.13 0-1.59.43-1.59 1 0 1.55 4.34.54 4.34 3.23 0 1.17-.95 2.17-3 2.17a4.66 4.66 0 0 1 -2.84-.91z"/><path d="m136.53 33 .47-1a4 4 0 0 0 2.41.8c1.14 0 1.62-.41 1.62-1 0-1.58-4.35-.54-4.35-3.26 0-1.18.95-2.18 2.95-2.18a4.72 4.72 0 0 1 2.44.64l-.43 1.06a4 4 0 0 0 -2-.57c-1.13 0-1.59.43-1.59 1 0 1.55 4.34.54 4.34 3.23 0 1.17-1 2.17-3 2.17a4.64 4.64 0 0 1 -2.86-.89z"/><path d="m144.76 26.48h1.36v7.32h-1.36z"/><path d="m155.64 31.81c0 1.25-1 2-2.86 2h-3.64v-7.33h3.43c1.76 0 2.7.74 2.7 1.9a1.75 1.75 0 0 1 -.94 1.61 1.8 1.8 0 0 1 1.31 1.82zm-5.14-4.26v2h1.92c.94 0 1.48-.33 1.48-1s-.54-1-1.48-1zm3.77 4.12c0-.73-.55-1.05-1.57-1.05h-2.2v2.11h2.2c1.02 0 1.57-.32 1.57-1.06z"/><path d="m158.14 26.48h1.36v7.32h-1.36z"/><path d="m162.52 26.48h1.36v6.17h3.82v1.15h-5.18z"/><path d="m169.82 26.48h1.36v7.32h-1.36z"/><path d="m175.69 27.63h-2.43v-1.15h6.21v1.15h-2.42v6.17h-1.36z"/><path d="m185.15 31.22v2.58h-1.36v-2.56l-2.87-4.76h1.45l2.14 3.52 2.17-3.56h1.32z"/><path d="m101.07 44.2v1.14h-5.49v-7.34h5.34v1.14h-4v1.9h3.53v1.12h-3.51v2z"/><path d="m108.15 45.34-2-2.78-2 2.78h-1.54l2.71-3.73-2.52-3.61h1.54l1.87 2.6 1.85-2.6h1.47l-2.53 3.55 2.75 3.79z"/><path d="m111.05 41.68a4 4 0 0 1 6.81-2.54l-.86.86a2.55 2.55 0 0 0 -2-.86 2.57 2.57 0 1 0 0 5.14 2.52 2.52 0 0 0 2-.87l.88.84a4 4 0 0 1 -6.81-2.54z"/><path d="m126.71 38v7.32h-1.35v-3.12h-3.79v3.14h-1.36v-7.34h1.36v3h3.79v-3z"/><path d="m134.47 43.64h-3.66l-.72 1.7h-1.4l3.31-7.34h1.34l3.3 7.32h-1.44zm-.47-1.06-1.38-3.2-1.37 3.2z"/><path d="m145.1 38v7.32h-1.1l-4-5v5h-1.4v-7.32h1.12l4 5v-5z"/><path d="m153.1 41.6h1.29v2.91a4.6 4.6 0 0 1 -2.86.93 3.76 3.76 0 1 1 0-7.52 3.78 3.78 0 0 1 2.93 1.19l-.85.84a2.72 2.72 0 0 0 -2-.84 2.57 2.57 0 1 0 0 5.14 2.87 2.87 0 0 0 1.5-.38z"/><path d="m162.71 44.2v1.14h-5.49v-7.34h5.34v1.14h-4v1.9h3.53v1.12h-3.53v2z"/></g></svg>
