<svg xmlns="http://www.w3.org/2000/svg" viewBox="0 0 601.44 432.97"><defs><style>.cls-2{fill:#00b8d5}.cls-3{fill:#c8b5d8}</style></defs><g id="Layer_2" data-name="Layer 2"><g id="Layer_1-2" data-name="Layer 1"><path d="M383 309.75V123.21a30 30 0 0 0-15-25.93l-67.28-38.85-67.29 38.85a30 30 0 0 0-15 25.93v186.54a29.94 29.94 0 0 0 15 25.93l67.29 38.85L368 335.68a30 30 0 0 0 15-25.93Z" style="fill:#26296a"/><path class="cls-2" d="M383 263.35v46.4a30 30 0 0 1-15 25.93l-67.29 38.85L395 429a30 30 0 0 0 29.95 0l161.55-93.27a30 30 0 0 0 15-25.93V195q-7 2.85-13.76 5.58C492.4 238.65 427.35 256.46 383 263.35ZM601.44 127.7v-4.49a30 30 0 0 0-15-25.93L424.92 4A30 30 0 0 0 395 4l-94.28 54.43L368 97.28a30 30 0 0 1 15 25.93v82.32c21.75-4.35 51-12.23 90.26-25.95 40.25-14.1 84.3-31.99 128.18-51.88Z"/><path class="cls-3" d="M218.45 169.61v-46.4a29.94 29.94 0 0 1 15-25.93l67.29-38.85L206.46 4a29.93 29.93 0 0 0-29.94 0L15 97.28a30 30 0 0 0-15 25.93V238q7-2.85 13.76-5.57c95.24-38.11 160.33-55.92 204.69-62.82ZM0 305.27v4.48a30 30 0 0 0 15 25.93L176.52 429a29.93 29.93 0 0 0 29.94 0l94.26-54.42-67.29-38.85a29.94 29.94 0 0 1-15-25.93v-82.36c-21.74 4.35-51 12.23-90.25 25.94-40.26 14.1-84.3 32-128.18 51.89Z"/><path d="M473.24 179.58C434 193.3 404.73 201.18 383 205.53c-38.35 7.68-53.19 4.42-57.35 2.95-1.47-15-10-27.68-24.16-35-11.8-6.11-35.58-11.22-83-3.85-44.36 6.9-109.41 24.71-204.69 62.83Q7 235.16 0 238v67.26c43.88-19.89 87.92-37.79 128.2-51.89 39.21-13.71 68.51-21.59 90.25-25.94 38.35-7.68 53.2-4.42 57.36-3 1.47 15 10 27.68 24.16 35 10.57 5.48 30.78 10.15 69 5.75q6.62-.76 14-1.91c44.37-6.89 109.42-24.7 204.7-62.81q6.8-2.73 13.76-5.58V127.7c-43.87 19.89-87.92 37.78-128.19 51.88Z" style="fill:#fff"/></g></g></svg>
