<svg xmlns="http://www.w3.org/2000/svg" fill="none" viewBox="0 0 117 85">
  <path stroke="currentColor" stroke-miterlimit="10" stroke-width="3" d="M73.958 51.207v8.67c0 2.032-1.084 3.793-2.845 4.877l-12.598 7.315 17.61 10.16c1.762.948 3.93.948 5.555 0l30.208-17.475c1.761-.949 2.845-2.845 2.845-4.877V38.474c-.813.406-1.761.677-2.574 1.083-17.746 7.044-29.938 10.431-38.2 11.65ZM114.733 25.875v-.812c0-2.032-1.084-3.793-2.845-4.877L81.815 2.846c-1.76-.948-3.928-.948-5.554 0l-17.61 10.16 12.598 7.315c1.76.949 2.845 2.845 2.845 4.877v15.308c4.064-.813 9.482-2.303 16.797-4.877 7.45-2.71 15.714-5.96 23.842-9.754ZM43.208 33.733v-8.67c0-2.032 1.083-3.793 2.844-4.877l12.599-7.315-17.61-10.16c-1.762-.948-3.93-.948-5.555 0L5.278 20.186c-1.762.948-2.845 2.845-2.845 4.877v21.403c.813-.406 1.76-.677 2.574-1.083 17.88-7.045 29.937-10.296 38.2-11.65Z"/>
  <path stroke="currentColor" stroke-miterlimit="10" stroke-width="3" d="M2.433 59.064v.813c0 2.032 1.083 3.793 2.845 4.877l30.208 17.474c1.761.949 3.929.949 5.554 0l17.61-10.16-12.598-7.314c-1.76-.949-2.844-2.845-2.844-4.877V44.569c-4.064.813-9.483 2.303-16.798 4.877-7.45 2.574-15.714 5.96-23.977 9.618Z"/>
  <path stroke="currentColor" stroke-miterlimit="10" stroke-width="3" d="M90.756 35.63c-7.315 2.573-12.734 4.063-16.798 4.876-7.18 1.49-9.889.813-10.702.542-.27-2.845-1.896-5.148-4.47-6.502-2.167-1.084-6.638-2.032-15.443-.678-8.263 1.355-20.32 4.606-38.201 11.786-.813.27-2.032.677-2.71.948V59.2c7.858-3.657 16.527-7.044 23.978-9.618 7.315-2.574 12.734-4.064 16.798-4.876 7.18-1.49 9.889-.813 10.701-.542.271 2.844 1.897 5.147 4.47 6.502 2.033 1.084 5.69 1.897 12.87 1.084.813-.136 1.625-.271 2.574-.407 8.263-1.354 20.32-4.606 38.201-11.785.812-.271 1.896-.677 2.709-1.084V25.876c-7.992 3.793-16.391 7.044-23.977 9.753Z"/>
</svg>
