<svg xmlns="http://www.w3.org/2000/svg" fill="none" viewBox="0 0 119 54">
  <g>
    <path fill="currentColor" d="M99.6 33.875c-2.82-2.339-3.501-4.437-2.438-7.314.132-.355.523-.616.798-.919.132.34.264.684.407 1.018.08.188.127.428.275.543.925.726 1.872 1.425 2.914 2.214.042-.36.026-.742.137-1.08.116-.361.354-.685.54-1.03.206.366.65.789.581 1.092-.37 1.613-.597 3.34-1.385 4.75-.936 1.676-2.337 3.112-3.628 4.574-2.078 2.36-3.77 4.855-3.495 8.17.074.919.19 1.863.497 2.72.148.422.878 1.007 1.174.924.455-.126 1.09-.768 1.09-1.185-.006-3.331 1.644-5.566 4.478-7.147 1.983-1.112 3.95-2.255 5.848-3.498.646-.423 1.359-1.128 1.529-1.822.555-2.302.867-4.657 1.295-6.99.079-.423.291-.825.444-1.238.207.418.566.83.587 1.259a17.399 17.399 0 0 1-1.401 7.888c-.286.673-.883 1.326-1.507 1.728-2.21 1.42-4.479 2.751-6.758 4.061-1.005.58-1.248 1.29-1.036 2.407.502 2.6.883 5.22 1.263 7.836.053.36-.19.767-.296 1.148-.264-.328-.692-.626-.761-.991-.455-2.428-.83-4.871-1.232-7.31-.032-.203-.111-.401-.164-.605-.127-.031-.249-.057-.375-.088-.207.7-.45 1.393-.603 2.103-.1.47-.037.971-.09 1.452-.138 1.315-1 2.177-2.216 2.244-1.19.068-2.12-.605-2.448-1.832-1.005-3.764-.545-7.262 1.951-10.389.222-.276.44-.558.645-.845.048-.068.053-.167-.264.088-1.105-1.07-2.205-2.145-3.252-3.163-.153 1.247-.354 2.955-.566 4.656-.444 3.509-.983 6.99-2.617 10.206-.508 1.003-1.164 1.765-2.396 1.854-2.11.151-3.717-1.566-2.903-3.477 2.406-5.66 2.02-11.689 2.67-17.583.26-2.37.455-4.745.836-7.094.116-.7.619-1.54 1.206-1.927 4.013-2.62 8.249-4.735 13.166-5.22 4.447-.439 8.323 1.368 10.116 5.408 1.131 2.548 1.75 5.357 2.316 8.102 1.57 7.607 3.003 15.24 4.447 22.866.09.486-.18 1.034-.286 1.556-.269-.433-.698-.835-.793-1.305-1.681-8.483-3.32-16.972-4.976-25.46-.179-.909-.37-1.817-.645-2.705-1.84-5.982-6.081-8.394-12.257-7.006-3.765.846-7.133 2.558-10.3 4.657-.556.37-.952 1.295-1.026 2.005-.519 5.137-.81 10.3-1.439 15.421-.338 2.772-1.136 5.502-1.871 8.212-.275 1.018-.212 1.775.703 2.26.978.517 1.729.053 2.22-.83 1.608-2.881 2.153-6.06 2.581-9.26.376-2.8.81-5.602.941-8.416.096-2.052-.253-4.125-.401-6.187-.149-2.056.835-3.471 2.643-4.354.323-.156.783-.047 1.18-.062-.186.34-.28.85-.56.992-1.735.856-2.312 2.25-2.079 4.05.254 2.005.264 4.104.92 5.973.508 1.446 1.808 2.642 2.83 3.884.507.621 1.12.6 1.649-.115.47-.631 1.015-1.21 1.586-1.88v.006Zm.687-1.29c1.094-1.263-.064-3.445-2.19-4.118-.581 1.702.27 3.31 2.19 4.119Z"/>
  </g>
  <g>
    <path fill="currentColor" d="M52.578 29.18c-2.315 1.42-3.364 1.172-5.142-1.194-.075.186-.19.331-.19.48.03 2.837.034 5.673.15 8.504.03.76.246 1.607.643 2.237.853 1.338.863 2.774.848 4.262-.03 2.8.01 5.594-.035 8.394-.005.382-.341.76-.527 1.142-.186-.377-.532-.75-.537-1.126-.046-3.193-.015-6.38-.036-9.573 0-.465 0-1.002-.206-1.39-1.531-2.897-1.621-6.023-1.516-9.19.11-3.316.276-6.632.382-9.954.125-3.874 1.295-4.84 4.91-3.998 1.597-3.069 3.094-3.493 5.84-1.653 2.4-1.535 3.32-1.493 5.132.077 1.15-.253 2.165-.718 3.144-.646 1.692.13 2.867 1.52 2.566 3.26-.382 2.185.301 3.657 1.606 5.347 1.366 1.771 2.175 4.024 3.084 6.132.587 1.363.296 2.784-.533 3.988-1.35 1.957-2.822 3.827-4.142 5.806-.422.63-.713 1.483-.733 2.242-.08 3.146-.01 6.292-.06 9.438-.006.408-.372.811-.568 1.22-.17-.393-.487-.781-.492-1.174-.045-3.45-.055-6.906-.005-10.357.01-.553.276-1.178.602-1.638 1.321-1.875 2.712-3.698 4.078-5.538 1.074-1.446 1.366-2.96.462-4.628-.93-1.71-1.672-3.549-2.757-5.145-1.758-2.578-3.756-2.95-6.553-1.68-.773.352-1.712.31-2.546.554-.472.14-1.16.402-1.26.754-.11.382.246 1.234.582 1.358 1 .378 2.11.75 3.144.672 2.455-.186 2.43-.284 3.083 2.061.145.527.432 1.018.728 1.71-.347.17-.723.377-1.12.543-1.29.542-2.651.95-3.861 1.637-1.763 1.002-2.426 2.82-2.888 4.737-.11.444-.527.811-.803 1.214-.07-.501-.281-1.033-.18-1.498.717-3.394 1.32-4.127 5.166-6.855-.366-.057-.853-.294-1.074-.14-1.376.972-2.631.76-3.907-.315-1.481 1.178-2.983 1.39-4.474-.088l-.005.01Zm3.856-6.339h.216c0-1.524.04-3.047-.015-4.571-.045-1.194-.984-2.118-2.023-2.129-1.08-.01-2.1 1.008-2.044 2.237.14 2.955.367 5.91.577 8.865.08 1.09.583 1.87 1.748 1.792 1.165-.077 1.531-.93 1.536-2.01v-4.184h.005Zm-4.428 4.004c-.151-2.04-.277-4.081-.452-6.116-.116-1.38-1.075-2.294-2.215-2.186-1.25.12-1.993 1.168-1.762 2.65.316 2.062.703 4.112 1.09 6.158.195 1.023.828 1.695 1.857 1.565 1.09-.14 1.527-.981 1.477-2.071h.005Zm5.603-4.525c1.03 0 1.758.108 2.436-.037.507-.108 1.27-.454 1.36-.836.272-1.127.387-2.33.332-3.493-.05-1.08-.844-1.735-1.873-1.797-.974-.057-1.828.496-1.973 1.498-.221 1.529-.196 3.094-.282 4.665Zm9.114-1.245c.07-.75.211-1.591.221-2.439.015-1.12-.648-1.802-1.652-1.999-1.044-.201-1.873.346-2.174 1.359-.291.966-.337 2.01-.497 3.073h4.102v.006Zm-8.943 5.419c-.321 1.374.05 2.314 1.035 2.51 1.049.212 1.637-.33 1.958-1.4-1.055-.392-2.024-.749-2.993-1.11Zm4.143 1.08c.356 1.032.833 1.647 1.933 1.342-.15-1.797-.256-1.88-1.933-1.343Z"/>
  </g>
  <g>
    <path fill="currentColor" d="M21.093 29.788c-1.348-8.717-2.67-17.314-4.003-25.912-.06-.387-.139-.77-.214-1.156-.199-1.048-.795-1.698-1.835-1.538-1.029.155-1.466.94-1.352 2.013.288 2.688.582 5.372.88 8.06.13 1.172.219 2.349.423 3.505.164.923.522 1.806.73 2.72.165.706.339 1.444.319 2.162-.06 2.224-.234 4.443-.323 6.667-.134 3.365-1.88 4.454-4.739 2.916-1.954 1.321-2.471 1.352-4.47.232-2.442 1.6-3.496 1.347-5.3-1.496 0 2.312-.056 4.36.014 6.41.075 2.198.458 4.329 1.601 6.254.184.304.2.753.2 1.135.014 3.319.01 6.642.01 9.96 0 .13.039.284-.016.387-.159.305-.358.594-.537.888-.179-.289-.497-.573-.507-.867-.055-1.44-.025-2.88-.025-4.325 0-.96-.015-1.92 0-2.884.04-1.961-.025-3.835-.92-5.703-.611-1.275-.766-2.864-.815-4.325-.135-3.622-.09-7.25-.12-10.873 0-.346.01-.697-.04-1.037-.387-2.823 1.234-4.439 3.949-3.923.204.037.402.088.591.13 1.746-3.324 3.004-3.783 5.455-2.225 1.323-.506 2.501-.96 3.894-1.491-.234-2.116-.488-4.48-.756-6.843-.194-1.734-.438-3.463-.602-5.197-.179-1.884.776-3.215 2.367-3.416 1.571-.196 2.75.903 3.043 2.776.955 6.11 1.924 12.22 2.894 18.33.373 2.36.741 4.718 1.149 7.07.189 1.105.74 1.461 1.884 1.11 1.557-.474 2.91-1.197 4.242-2.183 1.685-1.243 3.56-2.275 5.46-3.142 1.476-.676 2.6-.155 3.132 1.006.567 1.238.11 2.265-1.263 3.267-.85.619-1.79 1.285-2.317 2.172-2.322 3.917-5.599 6.75-9.383 8.933-2.069 1.193-2.82 2.7-2.605 5.12.218 2.425.074 4.887.02 7.333-.01.397-.393.79-.602 1.182-.154-.398-.443-.79-.448-1.192-.045-3.406-.015-6.812-.06-10.218-.01-.749.234-1.187.836-1.58 1.178-.758 2.277-1.65 3.466-2.394 3.073-1.925 5.619-4.371 7.617-7.504.736-1.156 2.024-1.925 2.984-2.952.378-.407.537-1.037.796-1.568-.567-.207-1.273-.749-1.686-.568-1.646.722-3.441 1.393-4.739 2.596-2.461 2.28-5.385 2.895-8.433 3.375-1.04.165-2.079.335-3.098.583-2.814.692-4.61 2.374-4.948 5.506-.04.393-.502.733-.77 1.094-.095-.428-.329-.877-.269-1.28.602-4.143 3.014-6.306 7.553-6.853.617-.072 1.224-.19 1.671-.263l.015.016ZM10.268 26.16h-.045c-.06-1.394-.114-2.782-.184-4.175-.05-.996-.02-2.013-.194-2.988-.209-1.167-1.168-1.807-2.212-1.647-1.055.16-1.805 1.182-1.71 2.364.039.475.143.944.203 1.42.278 2.063.537 4.133.83 6.197.15 1.048.647 1.873 1.79 1.77 1.12-.098 1.522-.944 1.512-2.033v-.914l.01.006Zm4.749-6.534c.08-1.59-.806-2.74-2.054-2.694-1.203.047-2.029 1.172-1.954 2.7.124 2.471.268 4.943.398 7.42.054 1.012.512 1.688 1.516 1.719 1.08.036 1.582-.687 1.651-1.729.164-2.472.299-4.944.443-7.416Zm-9.04 8.231c-.383-2.373-.642-4.309-1.02-6.223-.218-1.11-1.322-1.791-2.277-1.58-1.024.233-1.83 1.234-1.581 2.313.452 1.981.974 3.963 1.685 5.852.19.51 1.234 1.042 1.776.939.596-.114 1.064-.95 1.417-1.3Z"/>
  </g>
</svg>
