<svg viewBox="0 0 99 71" fill="none" xmlns="http://www.w3.org/2000/svg"><path d="M62.722 50.787V20.244c0-1.755-.936-3.393-2.457-4.212l-11-6.32-11 6.32c-1.522.819-2.458 2.457-2.458 4.212v30.543c0 1.755.936 3.394 2.458 4.213l11 6.319 11-6.32c1.52-.819 2.457-2.457 2.457-4.212Z" fill="#26296A"/><path d="M62.725 43.18v7.607c0 1.755-.936 3.393-2.457 4.212l-11 6.32 15.447 8.893c1.521.82 3.394.82 4.915 0L96.077 55c1.52-.819 2.457-2.457 2.457-4.212v-18.84c-.702.35-1.521.584-2.223.936-15.564 6.202-26.213 9.127-33.586 10.297ZM98.534 20.947v-.702c0-1.756-.936-3.394-2.457-4.213L69.63.702a5.222 5.222 0 0 0-4.915 0L49.268 9.596l11 6.319c1.521.82 2.457 2.457 2.457 4.213v13.457c3.511-.702 8.426-1.99 14.745-4.213 6.67-2.223 13.926-5.148 21.064-8.425Z" fill="#00B9D6"/><path d="M35.809 27.851v-7.606c0-1.756.936-3.394 2.457-4.213l11-6.32L33.819.703a5.222 5.222 0 0 0-4.915 0L2.457 15.915C.937 16.851 0 18.49 0 20.245v18.84c.702-.35 1.521-.585 2.223-.936 15.681-6.319 26.33-9.245 33.586-10.298ZM0 50.084v.703c0 1.755.936 3.393 2.457 4.212l26.447 15.33c1.522.82 3.394.82 4.915 0l15.447-8.893-11-6.437c-1.521-.819-2.457-2.457-2.457-4.212V37.329c-3.511.702-8.426 1.99-14.745 4.213-6.67 2.34-13.926 5.266-21.064 8.542Z" fill="#CAB6D9"/><path d="M77.585 29.488C71.149 31.712 66.35 33 62.84 33.701c-6.319 1.287-8.776.702-9.362.468-.234-2.457-1.638-4.564-3.978-5.734-1.99-1.053-5.851-1.872-13.575-.585-7.255 1.17-17.904 4.096-33.585 10.298-.702.351-1.521.585-2.223.936v11c7.138-3.277 14.393-6.202 21.064-8.542 6.436-2.224 11.234-3.511 14.744-4.213 6.32-1.287 8.777-.702 9.362-.468.234 2.457 1.638 4.564 3.979 5.734 1.755.936 5.032 1.638 11.35.936.703-.117 1.522-.234 2.341-.351 7.256-1.17 17.905-4.096 33.585-10.298.703-.351 1.522-.585 2.224-.936v-11c-7.373 3.276-14.628 6.202-21.181 8.542Z" fill="#fff"/></svg>
