<svg viewBox="0 0 28 22" fill="none" xmlns="http://www.w3.org/2000/svg">
<path fill="currentColor" d="M12.7114 8.04187C11.8235 7.59352 10.78 7.54713 9.87911 7.87002C11.7431 7.87002 12.9945 8.77454 13.6232 10.1043C13.9984 10.895 13.3979 11.7862 12.5899 11.7862C13.3962 11.7862 13.9991 12.6757 13.6232 13.468C12.9789 14.8307 11.6053 15.7146 10.1101 15.7146C10.0857 15.7146 5.97701 15.334 5.97701 15.334L3.07174 16.8072C2.66119 17.0145 2.20483 16.8239 2.02634 16.4634L0.0813842 12.535C-0.100922 12.1544 0.0327779 11.7002 0.385272 11.4915L2.92592 10.0306L4.72501 6.75288C5.00457 4.22398 6.24449 1.90372 8.21377 0.270994C8.71212 -0.146389 9.45369 -0.072746 9.85483 0.430604C10.2681 0.933955 10.1952 1.67051 9.69681 2.08794C9.1498 2.5544 8.66352 3.08232 8.27454 3.65931C9.22269 3.00863 10.3167 2.56673 11.5202 2.4194C12.1644 2.33348 12.7479 2.78766 12.8209 3.43834C12.906 4.08897 12.4562 4.67825 11.8119 4.75189C11.1068 4.83781 10.4504 5.08335 9.87911 5.42709C11.0216 5.17471 12.4478 5.28846 13.7326 5.91811C14.316 6.21273 14.5591 6.91249 14.2674 7.50176C13.9879 8.07871 13.2828 8.3242 12.7114 8.04187ZM11.5202 11.1109C11.2528 10.5585 10.7179 10.2147 10.1101 10.2147C9.90555 10.2141 9.70292 10.2544 9.51386 10.3331C9.32479 10.4119 9.15301 10.5276 9.0084 10.6736C8.86379 10.8197 8.74921 10.9931 8.67124 11.1841C8.59328 11.375 8.55346 11.5796 8.5541 11.7861C8.5541 12.7327 9.3332 13.3575 10.1101 13.3575C10.7179 13.3575 11.2528 13.0137 11.5202 12.4613C11.7147 12.0439 12.1158 11.7984 12.5413 11.7861C12.1158 11.7739 11.7147 11.5283 11.5202 11.1109ZM27.9186 9.46591C28.1009 9.84649 27.9672 10.3007 27.6147 10.5094L25.0741 11.9703L23.275 15.248C22.9955 17.7769 21.7555 20.0972 19.7863 21.7299C19.308 22.1325 18.5701 22.0897 18.1452 21.5703C17.7319 21.067 17.8048 20.3304 18.3033 19.913C18.8503 19.4465 19.3365 18.9186 19.7255 18.3416C18.7773 18.9923 17.6833 19.4342 16.4799 19.5815C16.0414 19.6922 15.2745 19.3322 15.1792 18.5626C15.0941 17.9119 15.5439 17.3227 16.1881 17.249C16.8932 17.163 17.5496 16.9176 18.1209 16.5738C16.9784 16.8262 15.5523 16.7124 14.2675 16.0828C13.684 15.7882 13.4409 15.0884 13.7327 14.4991C14.0122 13.9222 14.7173 13.6766 15.2886 13.959C16.1765 14.4073 17.2201 14.4537 18.121 14.1308C16.2569 14.1308 15.0056 13.2263 14.3769 11.8966C14.0017 11.1058 14.6021 10.2147 15.4102 10.2147C14.6039 10.2147 14.0009 9.32516 14.3769 8.53285C14.9909 7.23423 16.3036 6.28482 17.9629 6.28628L22.0231 6.66687L24.9283 5.1937C25.3399 4.98589 25.7958 5.17806 25.9737 5.53744L27.9186 9.46591ZM17.8899 8.64342C17.2821 8.64342 16.7472 8.98716 16.4798 9.53959C16.2853 9.95702 15.8842 10.2025 15.4587 10.2148C15.8842 10.2271 16.2853 10.4726 16.4798 10.89C16.7472 11.4424 17.2821 11.7862 17.8899 11.7862C18.0944 11.7868 18.2971 11.7465 18.4861 11.6678C18.6752 11.589 18.847 11.4733 18.9916 11.3273C19.1362 11.1812 19.2508 11.0078 19.3287 10.8168C19.4067 10.6259 19.4465 10.4213 19.4459 10.2148C19.4459 9.26813 18.6668 8.64342 17.8899 8.64342Z" fill="#3842AA"/>
</svg>
