<svg viewBox="0 0 21 22" xmlns="http://www.w3.org/2000/svg">
    <path fill="currentColor" d="M2 22C1.45 22 0.979333 21.8043 0.588 21.413C0.196 21.021 0 20.55 0 20V4C0 3.45 0.196 2.979 0.588 2.587C0.979333 2.19567 1.45 2 2 2H11L9 4H2V20H13V17H15V20C15 20.55 14.8043 21.021 14.413 21.413C14.021 21.8043 13.55 22 13 22H2ZM4 18V16H11V18H4ZM4 15V13H9V15H4ZM13 15L9 11H6V6H9L13 2V15ZM15 11.95V5.05C15.6 5.4 16.0833 5.875 16.45 6.475C16.8167 7.075 17 7.75 17 8.5C17 9.25 16.8167 9.925 16.45 10.525C16.0833 11.125 15.6 11.6 15 11.95ZM15 16.25V14.15C16.1667 13.7333 17.125 13.0123 17.875 11.987C18.625 10.9623 19 9.8 19 8.5C19 7.2 18.625 6.03733 17.875 5.012C17.125 3.98733 16.1667 3.26667 15 2.85V0.75C16.7333 1.2 18.1667 2.13733 19.3 3.562C20.4333 4.98733 21 6.63333 21 8.5C21 10.3667 20.4333 12.0127 19.3 13.438C18.1667 14.8627 16.7333 15.8 15 16.25Z" />
</svg>
