<svg viewBox="0 0 20 23" fill="none" xmlns="http://www.w3.org/2000/svg">
    <path fill="currentColor" fill-rule="evenodd" clip-rule="evenodd" d="M11.3316 10.7163V2.29596L6.61 4.77933H6.55114C6.25249 4.77933 6.09874 4.94261 6.06453 5.06622L6.61 4.77933H6.61025L6.06448 5.06639C5.94109 5.5149 5.875 5.98777 5.875 6.47812L5.875 6.47898C5.87454 6.95596 5.93836 7.43083 6.06473 7.89077L5.22101 8.12261L6.06441 7.8896C6.09856 8.01321 6.2529 8.17692 6.55114 8.17692H8.08856C8.29982 8.17692 8.50395 8.25335 8.66325 8.39211L11.3316 10.7163ZM6.61025 4.77933L11.3316 2.29596L8.65527 4.57101C8.49707 4.70549 8.2962 4.77933 8.08856 4.77933H6.61025ZM12.2235 0.230721C11.9697 0.125634 11.6905 0.0981145 11.4211 0.151638C11.1659 0.202322 10.9305 0.323527 10.7411 0.501077L7.76691 3.02933H6.55114C5.64196 3.02933 4.66463 3.56048 4.37753 4.60089L4.37738 4.60145C4.21263 5.20001 4.12504 5.82908 4.125 6.4777L4.125 6.47727L5 6.47812H4.125V6.4777C4.12442 7.11177 4.20928 7.74303 4.37728 8.35444L4.3776 8.35561C4.66466 9.39468 5.64142 9.92692 6.55114 9.92692H7.76092L10.7364 12.5185C10.9265 12.6985 11.1638 12.8214 11.4211 12.8725C11.6905 12.926 11.9698 12.8985 12.2235 12.7934C12.4773 12.6883 12.6943 12.5104 12.847 12.282C12.9998 12.0537 13.0814 11.7853 13.0816 11.5106V11.5098V1.51431V1.51354C13.0814 1.23885 12.9998 0.970389 12.847 0.742069C12.6943 0.513748 12.4773 0.335808 12.2235 0.230721ZM17.1932 1.4915C16.8515 1.14979 16.2975 1.1498 15.9558 1.49151C15.6141 1.83322 15.6141 2.38724 15.9558 2.72894C16.4482 3.22129 16.8387 3.80579 17.1052 4.44908C17.3716 5.09236 17.5088 5.78184 17.5088 6.47812C17.5088 7.17441 17.3716 7.86388 17.1052 8.50717C16.8387 9.15045 16.4482 9.73495 15.9558 10.2273C15.6141 10.569 15.6141 11.123 15.9558 11.4647C16.2975 11.8064 16.8515 11.8065 17.1932 11.4647C17.8481 10.8099 18.3676 10.0325 18.722 9.17687C19.0764 8.32126 19.2588 7.40423 19.2588 6.47812C19.2588 5.55202 19.0764 4.63498 18.722 3.77938C18.3676 2.92377 17.8481 2.14635 17.1932 1.4915ZM15.3738 3.31174C15.0321 2.97 14.4781 2.96996 14.1364 3.31164C13.7946 3.65332 13.7946 4.20734 14.1363 4.54908C14.6478 5.06072 14.9352 5.75461 14.9352 6.47812C14.9352 7.20164 14.6478 7.89552 14.1363 8.40717C13.7946 8.74891 13.7946 9.30293 14.1364 9.64461C14.4781 9.98629 15.0321 9.98624 15.3738 9.6445C16.2135 8.80468 16.6852 7.66572 16.6852 6.47812C16.6852 5.29053 16.2135 4.15157 15.3738 3.31174ZM2.125 1.1249C1.02075 1.1249 0.125 2.02065 0.125 3.1249V20.3749C0.125 21.4792 1.02075 22.3749 2.125 22.3749H14.875C15.9792 22.3749 16.875 21.4792 16.875 20.3749V13.9999C16.875 13.5167 16.4832 13.1249 16 13.1249C15.5168 13.1249 15.125 13.5167 15.125 13.9999V20.3749C15.125 20.5127 15.0128 20.6249 14.875 20.6249H2.125C1.98725 20.6249 1.875 20.5127 1.875 20.3749V3.1249C1.875 2.98715 1.98725 2.8749 2.125 2.8749H4C4.48325 2.8749 4.875 2.48315 4.875 1.9999C4.875 1.51665 4.48325 1.1249 4 1.1249H2.125ZM4.75 14.6249C4.26675 14.6249 3.875 15.0167 3.875 15.4999C3.875 15.9832 4.26675 16.3749 4.75 16.3749H12.25C12.7332 16.3749 13.125 15.9832 13.125 15.4999C13.125 15.0167 12.7332 14.6249 12.25 14.6249H4.75ZM4.75 17.6249C4.26675 17.6249 3.875 18.0167 3.875 18.4999C3.875 18.9832 4.26675 19.3749 4.75 19.3749H8.5C8.98325 19.3749 9.375 18.9832 9.375 18.4999C9.375 18.0167 8.98325 17.6249 8.5 17.6249H4.75Z"/>
</svg>
